<svg xmlns="http://www.w3.org/2000/svg" width="1703.16" height="308.423" viewBox="0 0 1703.16 308.423"><g transform="translate(595.149 -149.851)"><path d="M555,626.274v-73H998.917c9.678-1.2,25.211.415,25.211-27.238V431.581c-.514-9.21-.147-37.313,20.47-59.932,10.579-11.605,30.219-25.44,63.718-25.44l1035.833,2.969V325.863a8,8,0,0,1,12-6.927l98.011,56.638a8,8,0,0,1,0,13.853l-98.011,56.638a8,8,0,0,1-12-6.927v-19.96l-1035.833-2.968c-6.645,0-10.806,1.3-11.984,2.595-1.928,2.115-2.384,8.042-2.354,8.358l.149,98.875c0,101.75-92.853,98.339-91.806,100.237Z" transform="translate(-1150.149 -168)" fill="#fdd47c"/><text transform="translate(362 197)" fill="#0a3e59" font-size="43" font-family="Rockwell-Regular, Rockwell"><tspan x="0" y="29">of EdReports </tspan></text><text transform="translate(648 187)" fill="#0a3e59" font-size="70" font-family="CenturyGothicPro-BoldItalic, Century Gothic Pro" font-weight="700" font-style="italic"><tspan x="0" y="52">IMPACT</tspan></text></g></svg>