<svg xmlns="http://www.w3.org/2000/svg" width="511.808" height="87.253" viewBox="0 0 511.808 87.253"><g transform="translate(112.303 -104.475)"><path d="M-419.466,1384.925v-9.451c-101.206-.13-306.59-.413-434.154-.716-.268.071.24-46.947.24-49.129,128.22.3,333.02.583,433.913.714V1313.7a8,8,0,0,1,12.005-6.925l61.576,35.615a8,8,0,0,1,0,13.85l-61.576,35.615a7.934,7.934,0,0,1-3.993,1.087A8.01,8.01,0,0,1-419.466,1384.925Z" transform="translate(741.394 -1201.209)" fill="#fdd47c"/><path d="M1.96,28.732H6.912L10.75,1.171H5.683Zm9.712,0h4.952L21.038,11.42l4.184,17.312h3.954l8.176-16.506.23,16.506h4.837L42.035,1.171H37.582l-9.52,19.193L23.379,1.171H18.7Zm35.853,0h5.182L54.28,17.1c3.839-.077,6.794-.269,9.1-1.8a8.073,8.073,0,0,0,3.532-6.718,6.726,6.726,0,0,0-2.994-5.8c-2.073-1.42-4.338-1.612-7.1-1.612H51.248ZM55.777,6.008h.806c3.186,0,5.182.384,5.182,2.764,0,2.956-2.61,3.455-6.833,3.455Zm7.6,22.725h5.566l3.186-5.911H82.993l1.459,5.911H89.48L82.647,1.171H78.271ZM74.663,17.984l4.875-9.059,2.226,9.059Zm39.845,4.107a12.228,12.228,0,0,1-7.524,2.5c-5.451,0-9.213-3.723-9.213-8.714,0-5.911,5.259-10.595,11.094-10.595A8.891,8.891,0,0,1,115.7,8.2l3.762-3.455A15.087,15.087,0,0,0,108.75.48c-9.213,0-16.237,7.37-16.237,15.508A13.8,13.8,0,0,0,96.2,25.431c2.572,2.725,6.027,3.954,10.441,3.954a18.137,18.137,0,0,0,10.9-3.3Zm7.178-16.084h5.873l-2.994,22.725h5.144L132.7,6.008h5.835l.614-4.837H122.339Z" transform="translate(199.268 133.447)" fill="#0a3e59"/><path d="M15.069,9.044a6.714,6.714,0,0,1-.888,3.406A6.623,6.623,0,0,1,8.365,15.8,6.759,6.759,0,0,1,4.9,14.9,6.355,6.355,0,0,1,2.5,12.45a6.9,6.9,0,0,1-.858-3.406A7,7,0,0,1,2.5,5.565a6.188,6.188,0,0,1,2.391-2.4,6.925,6.925,0,0,1,3.479-.87,6.523,6.523,0,0,1,3.419.919,6.738,6.738,0,0,1,3.285,5.833Zm-6.7,4.307a3.811,3.811,0,0,0,2.056-.584,4.058,4.058,0,0,0,1.46-1.569A4.521,4.521,0,0,0,12.4,9.044a4.471,4.471,0,0,0-.523-2.129,4.2,4.2,0,0,0-1.46-1.588,3.886,3.886,0,0,0-4.136-.012A4.172,4.172,0,0,0,4.813,6.9a4.55,4.55,0,0,0,0,4.282A4.1,4.1,0,0,0,6.3,12.767,3.872,3.872,0,0,0,8.365,13.351ZM25.312-.348l-2.238.341q-.109-1.241-.949-1.241a.793.793,0,0,0-.8.426A3.967,3.967,0,0,0,21.127.7V2.633h2.19V4.883h-2.19v8.3h2.409v2.238h-6.8V13.18h1.874v-8.3H16.735V2.633h1.874V.65A4.482,4.482,0,0,1,19.467-2.2,3.026,3.026,0,0,1,22-3.292a3.279,3.279,0,0,1,2.232.736A3.538,3.538,0,0,1,25.312-.348ZM44.023,2.438V-.628H36.176V4.835H43V7.122H36.176v6.01h7.847V9.786h2.263v5.633H31.042V13.132H33.4V-.628h-2.36V-2.915H46.286V2.438ZM63.78,13.18v2.238H58.975V13.545a6.02,6.02,0,0,1-4.586,2.093,6.118,6.118,0,0,1-3.266-.87,5.981,5.981,0,0,1-2.2-2.366,7.015,7.015,0,0,1-.785-3.309,7.105,7.105,0,0,1,.833-3.406,6.452,6.452,0,0,1,2.305-2.476,5.91,5.91,0,0,1,3.187-.919,5.692,5.692,0,0,1,2.354.5A7.143,7.143,0,0,1,58.975,4.36V-.7h-2.47V-2.915h4.964v16.1Zm-8.917.219a3.727,3.727,0,0,0,2.1-.62,4.337,4.337,0,0,0,1.472-1.655,4.747,4.747,0,0,0,.535-2.214,4.488,4.488,0,0,0-.535-2.178A4.032,4.032,0,0,0,54.814,4.6a3.589,3.589,0,0,0-2.062.614,4.32,4.32,0,0,0-1.429,1.63A4.676,4.676,0,0,0,50.8,9.02a4.658,4.658,0,0,0,.535,2.238,4.066,4.066,0,0,0,1.46,1.569A3.853,3.853,0,0,0,54.863,13.4Zm23.8-11.509a4.475,4.475,0,0,1-1,2.962A5.127,5.127,0,0,1,74.875,6.5l3.236,6.63H80.35v2.287H76.238l-4.051-8.54H69.62v6.253h2.336v2.287H64.364V13.132h2.482V-.628H64.364V-2.915H71.98q3.54,0,5.11,1.156A4.231,4.231,0,0,1,78.659,1.891ZM75.8,1.842A2.179,2.179,0,0,0,75-.032a4.3,4.3,0,0,0-2.543-.6H69.62V4.579h2.664a4.57,4.57,0,0,0,2.652-.62A2.43,2.43,0,0,0,75.8,1.842ZM94.584,9.665H83.866a4.484,4.484,0,0,0,1.423,2.9,4.227,4.227,0,0,0,2.92,1.065,5.326,5.326,0,0,0,2.348-.523A4.571,4.571,0,0,0,92.37,11.5l2.214,1a6.742,6.742,0,0,1-2.743,2.464,8.263,8.263,0,0,1-3.692.833,7.634,7.634,0,0,1-3.674-.864,6.245,6.245,0,0,1-2.5-2.409,6.819,6.819,0,0,1-.894-3.479,6.868,6.868,0,0,1,.882-3.467,6.337,6.337,0,0,1,2.415-2.415,7.2,7.2,0,0,1,6.9.024,6.25,6.25,0,0,1,2.366,2.555A9.042,9.042,0,0,1,94.584,9.665Zm-6.776-5.28a3.63,3.63,0,0,0-2.494.955,4.39,4.39,0,0,0-1.375,2.524h8.005a4.456,4.456,0,0,0-1.5-2.524A4,4,0,0,0,87.808,4.385Zm23.6,4.708a7.024,7.024,0,0,1-.827,3.346,6.379,6.379,0,0,1-2.257,2.457,5.827,5.827,0,0,1-3.169.9,6.079,6.079,0,0,1-4.489-1.971V18.91h2.494v2.238H95.837V18.91h2.311V4.883H96.007V2.633h4.659V4.677a6.356,6.356,0,0,1,2.092-1.667,5.591,5.591,0,0,1,2.445-.547,5.894,5.894,0,0,1,3.224.894,6.129,6.129,0,0,1,2.2,2.415A7.135,7.135,0,0,1,111.409,9.093Zm-6.29,4.4a3.136,3.136,0,0,0,1.886-.608,4.065,4.065,0,0,0,1.314-1.655,5.3,5.3,0,0,0,.474-2.214,4.582,4.582,0,0,0-.523-2.172,4.157,4.157,0,0,0-1.436-1.582,3.7,3.7,0,0,0-2.056-.59,3.8,3.8,0,0,0-2.141.627,4.254,4.254,0,0,0-1.472,1.661,4.967,4.967,0,0,0-.523,2.275,3.989,3.989,0,0,0,1.259,3.127A4.632,4.632,0,0,0,105.119,13.5Zm21.606-4.453a6.714,6.714,0,0,1-.888,3.406,6.623,6.623,0,0,1-5.815,3.346,6.759,6.759,0,0,1-3.467-.9,6.355,6.355,0,0,1-2.4-2.445,6.9,6.9,0,0,1-.858-3.406,7,7,0,0,1,.858-3.479,6.188,6.188,0,0,1,2.391-2.4,6.925,6.925,0,0,1,3.479-.87,6.523,6.523,0,0,1,3.419.919,6.738,6.738,0,0,1,3.285,5.833Zm-6.7,4.307a3.811,3.811,0,0,0,2.056-.584,4.058,4.058,0,0,0,1.46-1.569,4.521,4.521,0,0,0,.523-2.153,4.471,4.471,0,0,0-.523-2.129,4.2,4.2,0,0,0-1.46-1.588,3.886,3.886,0,0,0-4.136-.012A4.172,4.172,0,0,0,116.47,6.9a4.55,4.55,0,0,0,0,4.282,4.1,4.1,0,0,0,1.484,1.582A3.872,3.872,0,0,0,120.022,13.351Zm13.261-3.066v2.9h2.786v2.238h-7.847V13.18h2.567v-8.3h-2.567V2.633h4.562v2.9a5.051,5.051,0,0,1,1.9-2.391,6.435,6.435,0,0,1,3.254-.675h.572V5.005h-.547a6.668,6.668,0,0,0-3.041.535,2.617,2.617,0,0,0-1.32,1.618A11.582,11.582,0,0,0,133.283,10.285Zm13.029-7.652V4.883h-2.336v6.7a2.635,2.635,0,0,0,.225,1.356.891.891,0,0,0,.773.31,4.076,4.076,0,0,0,1.338-.231V15.3a7.1,7.1,0,0,1-1.886.341,2.873,2.873,0,0,1-2.275-.8,4.182,4.182,0,0,1-.693-2.731V4.883h-1.667V2.633h1.667V.7l2.518-2.3V2.633Zm9.477.547V2.633h2.19V6.879h-2.19V6.1A3.459,3.459,0,0,0,152.8,4.531a2.8,2.8,0,0,0-1.63.438,1.325,1.325,0,0,0-.633,1.131,1.141,1.141,0,0,0,.481.973,5.788,5.788,0,0,0,2.159.62l1.691.328q3.784.693,3.784,3.711a3.421,3.421,0,0,1-1.369,2.835,5.732,5.732,0,0,1-3.631,1.071,6.115,6.115,0,0,1-1.77-.262,5.442,5.442,0,0,1-1.454-.651v.693h-2.238v-4.38h2.238v.438a2.258,2.258,0,0,0,1.028,1.484,3.477,3.477,0,0,0,1.965.56,3.7,3.7,0,0,0,1.934-.432,1.41,1.41,0,0,0,.706-1.283,1,1,0,0,0-.56-.931,8.922,8.922,0,0,0-2.251-.639l-1.3-.28a5.242,5.242,0,0,1-2.835-1.338,3.376,3.376,0,0,1-.9-2.421,3.2,3.2,0,0,1,.663-2.038,4.1,4.1,0,0,1,1.7-1.271,5.542,5.542,0,0,1,2.129-.426A6.133,6.133,0,0,1,155.79,3.18Z" transform="translate(31.579 143.324)" fill="#0a3e59"/></g></svg>