<svg xmlns="http://www.w3.org/2000/svg" width="2798.098" height="509.523" viewBox="0 0 2798.098 509.523"><g transform="translate(0 3.744)"><path d="M0,505.779V386.068H643.568c15.87-1.968,41.341.68,41.341-44.666V186.5c-.842-15.1-.239-61.188,33.568-98.28,17.348-19.032,49.558-41.72,104.49-41.72l1783.053,4.871V4.269a8,8,0,0,1,12-6.927L2794.1,99.091a8,8,0,0,1,0,13.854L2618.024,214.693a8,8,0,0,1-12-6.926v-41.6L832.968,161.3c-31.9.708-33.559,50.241-33.511,50.759L799.7,341.4c0,166.858-152.269,161.263-150.552,164.378Z" transform="translate(0 0)" fill="#fdd47c"/><path d="M39.65,31.621a19,19,0,0,1-2.513,9.641,18.743,18.743,0,0,1-16.458,9.469,19.13,19.13,0,0,1-9.813-2.548,17.984,17.984,0,0,1-6.8-6.921,19.528,19.528,0,0,1-2.427-9.641,19.819,19.819,0,0,1,2.427-9.847,17.514,17.514,0,0,1,6.766-6.8,19.6,19.6,0,0,1,9.847-2.462,18.462,18.462,0,0,1,9.675,2.6,19.071,19.071,0,0,1,9.3,16.51ZM20.678,43.81A10.786,10.786,0,0,0,26.5,42.157a11.485,11.485,0,0,0,4.132-4.442,12.8,12.8,0,0,0,1.481-6.094A12.655,12.655,0,0,0,30.629,25.6,11.874,11.874,0,0,0,26.5,21.1a11,11,0,0,0-11.707-.034,11.809,11.809,0,0,0-4.166,4.493,12.877,12.877,0,0,0,0,12.12,11.592,11.592,0,0,0,4.2,4.476A10.959,10.959,0,0,0,20.678,43.81ZM68.641,5.04,62.305,6Q62,2.492,59.62,2.492A2.243,2.243,0,0,0,57.365,3.7,11.228,11.228,0,0,0,56.8,8v5.475h6.2v6.37H56.8V43.328h6.817v6.335H44.367V43.328h5.3V19.846h-5.3v-6.37h5.3V7.864A12.686,12.686,0,0,1,52.1-.193q2.427-3.1,7.179-3.1a9.279,9.279,0,0,1,6.318,2.083A10.013,10.013,0,0,1,68.641,5.04ZM121.6,12.925V4.248H99.388v15.46H118.7v6.473H99.388V43.19H121.6V33.722H128V49.663H84.858V43.19h6.68V4.248h-6.68V-2.225H128v15.15Zm55.916,30.4v6.335h-13.6v-5.3a17.037,17.037,0,0,1-12.981,5.922,17.314,17.314,0,0,1-9.245-2.462,16.928,16.928,0,0,1-6.232-6.7,19.855,19.855,0,0,1-2.221-9.365,20.109,20.109,0,0,1,2.359-9.641,18.259,18.259,0,0,1,6.525-7.007,16.727,16.727,0,0,1,9.021-2.6,16.11,16.11,0,0,1,6.662,1.412,20.215,20.215,0,0,1,6.112,4.442V4.042h-6.99V-2.225H170.97V43.328Zm-25.238.62a10.548,10.548,0,0,0,5.957-1.756,12.275,12.275,0,0,0,4.166-4.683,13.436,13.436,0,0,0,1.515-6.266,12.7,12.7,0,0,0-1.515-6.163,11.412,11.412,0,0,0-10.26-6.025,10.158,10.158,0,0,0-5.836,1.739,12.227,12.227,0,0,0-4.046,4.614,13.75,13.75,0,0,0,.034,12.481,11.507,11.507,0,0,0,4.132,4.442A10.9,10.9,0,0,0,152.274,43.948Zm67.347-32.572A12.664,12.664,0,0,1,216.8,19.76a14.51,14.51,0,0,1-7.885,4.665l9.159,18.765h6.335v6.473H212.77L201.3,25.492h-7.265v17.7h6.611v6.473H179.165V43.19h7.024V4.248h-7.024V-2.225h21.554q10.019,0,14.461,3.271T219.621,11.376Zm-8.091-.138a6.168,6.168,0,0,0-2.272-5.3q-2.272-1.687-7.2-1.687h-8.022V18.985h7.54q5.061,0,7.506-1.756T211.53,11.238Zm53.162,22.139H234.358a12.691,12.691,0,0,0,4.028,8.212A11.962,11.962,0,0,0,246.65,44.6a15.073,15.073,0,0,0,6.645-1.481,12.937,12.937,0,0,0,5.13-4.545l6.266,2.823a19.082,19.082,0,0,1-7.764,6.972,23.385,23.385,0,0,1-10.45,2.359,21.606,21.606,0,0,1-10.4-2.445A17.673,17.673,0,0,1,229,41.469a19.3,19.3,0,0,1-2.531-9.847,19.438,19.438,0,0,1,2.5-9.813,17.934,17.934,0,0,1,6.835-6.835,20.364,20.364,0,0,1,19.54.069,17.687,17.687,0,0,1,6.7,7.231A25.59,25.59,0,0,1,264.692,33.377ZM245.514,18.434a10.274,10.274,0,0,0-7.058,2.7,12.424,12.424,0,0,0-3.891,7.144H257.22a12.612,12.612,0,0,0-4.235-7.144A11.315,11.315,0,0,0,245.514,18.434Zm66.8,13.325a19.879,19.879,0,0,1-2.341,9.469,18.054,18.054,0,0,1-6.387,6.955,16.49,16.49,0,0,1-8.969,2.548,17.2,17.2,0,0,1-12.705-5.578V59.545h7.058V65.88H268.238V59.545h6.542v-39.7h-6.06v-6.37h13.187V19.26a17.989,17.989,0,0,1,5.922-4.717,15.823,15.823,0,0,1,6.921-1.549,16.682,16.682,0,0,1,9.124,2.531,17.346,17.346,0,0,1,6.215,6.835A20.193,20.193,0,0,1,312.31,31.759Zm-17.8,12.464a8.875,8.875,0,0,0,5.337-1.722,11.506,11.506,0,0,0,3.719-4.683,15,15,0,0,0,1.343-6.266,12.967,12.967,0,0,0-1.481-6.146,11.764,11.764,0,0,0-4.063-4.476,10.483,10.483,0,0,0-5.819-1.67,10.753,10.753,0,0,0-6.06,1.773,12.04,12.04,0,0,0-4.166,4.7,14.057,14.057,0,0,0-1.481,6.439q0,5.647,3.564,8.849A13.11,13.11,0,0,0,294.509,44.223Zm61.15-12.6a19,19,0,0,1-2.513,9.641,18.743,18.743,0,0,1-16.458,9.469,19.13,19.13,0,0,1-9.813-2.548,17.985,17.985,0,0,1-6.8-6.921,19.528,19.528,0,0,1-2.427-9.641,19.819,19.819,0,0,1,2.427-9.847,17.514,17.514,0,0,1,6.766-6.8,19.6,19.6,0,0,1,9.847-2.462,18.462,18.462,0,0,1,9.675,2.6,19.071,19.071,0,0,1,9.3,16.51ZM336.687,43.81a10.786,10.786,0,0,0,5.819-1.653,11.485,11.485,0,0,0,4.132-4.442,12.8,12.8,0,0,0,1.481-6.094,12.655,12.655,0,0,0-1.481-6.025,11.874,11.874,0,0,0-4.132-4.493,11,11,0,0,0-11.707-.034,11.809,11.809,0,0,0-4.166,4.493,12.877,12.877,0,0,0,0,12.12,11.592,11.592,0,0,0,4.2,4.476A10.959,10.959,0,0,0,336.687,43.81Zm37.53-8.677v8.195H382.1v6.335H359.894V43.328h7.265V19.846h-7.265v-6.37h12.912v8.195q2.169-4.855,5.388-6.766t9.21-1.911h1.618v7.2h-1.549q-5.784,0-8.608,1.515a7.406,7.406,0,0,0-3.736,4.579A32.781,32.781,0,0,0,374.217,35.133Zm36.876-21.657v6.37h-6.611V38.817q0,2.961.637,3.839a2.522,2.522,0,0,0,2.186.878,11.536,11.536,0,0,0,3.787-.654v6.439a20.1,20.1,0,0,1-5.337.964q-4.476,0-6.439-2.255t-1.963-7.73V19.846h-4.717v-6.37h4.717V8l7.127-6.507V13.476Zm26.822,1.549V13.476h6.2V25.492h-6.2v-2.2a9.791,9.791,0,0,0-8.47-4.442,7.935,7.935,0,0,0-4.614,1.24,3.749,3.749,0,0,0-1.79,3.2,3.229,3.229,0,0,0,1.36,2.754q1.36,1,6.112,1.756l4.786.93q10.708,1.963,10.708,10.5a9.683,9.683,0,0,1-3.874,8.022q-3.874,3.03-10.278,3.03a17.307,17.307,0,0,1-5.01-.74,15.4,15.4,0,0,1-4.115-1.842v1.963H416.4v-12.4h6.335v1.24a6.391,6.391,0,0,0,2.909,4.2,9.841,9.841,0,0,0,5.561,1.584,10.46,10.46,0,0,0,5.475-1.222,3.99,3.99,0,0,0,2-3.632,2.836,2.836,0,0,0-1.584-2.634A25.25,25.25,0,0,0,430.719,35l-3.684-.792q-5.475-1.1-8.022-3.787a9.553,9.553,0,0,1-2.548-6.852,9.062,9.062,0,0,1,1.877-5.767,11.591,11.591,0,0,1,4.8-3.6,15.684,15.684,0,0,1,6.025-1.205A17.358,17.358,0,0,1,437.915,15.025Z" transform="translate(1570.661 75.213)" fill="#0a3e59"/><path d="M1.96,84.967H16.768L28.247,2.546H13.095Zm29.042,0H45.811L59.012,33.2,71.524,84.967H83.347L107.8,35.606l.689,49.361h14.464L121.8,2.546H108.487l-28.468,57.4-14-57.4h-14Zm107.216,0h15.5l4.706-34.782c11.479-.23,20.318-.8,27.206-5.4A24.142,24.142,0,0,0,196.188,24.7a20.114,20.114,0,0,0-8.954-17.334C181.035,3.12,174.263,2.546,166,2.546H149.353ZM162.9,17.01h2.411c9.528,0,15.5,1.148,15.5,8.265,0,8.839-7.806,10.331-20.433,10.331Zm22.729,67.957h16.645L211.8,67.289h32.486l4.362,17.678h15.038L243.253,2.546H230.166Zm33.749-32.142,14.579-27.091,6.658,27.091ZM338.53,65.108a36.566,36.566,0,0,1-22.5,7.461c-16.3,0-27.55-11.135-27.55-26.058,0-17.678,15.727-31.683,33.175-31.683,8.265,0,15.5,3.1,20.433,8.724l11.25-10.331A45.118,45.118,0,0,0,321.311.48c-27.55,0-48.557,22.04-48.557,46.376a41.259,41.259,0,0,0,11.02,28.239C291.465,83.245,301.8,86.918,315,86.918c12.4,0,23.073-3.1,32.6-9.872ZM360,17.01h17.563l-8.954,67.957h15.382l8.954-67.957H410.39l1.837-14.464H361.948Z" transform="translate(2039.875 61.228)" fill="#0a3e59"/></g></svg>