<svg xmlns="http://www.w3.org/2000/svg" width="2870.874" height="514.604" viewBox="0 0 2870.874 514.604"><g transform="translate(0 3.744)"><g transform="translate(0 0)"><path d="M605.664,510.7H0V395.907H609.042l1.89.125c12.228.6,43.022-2.5,57.31-16.094,2.724-2.593,9.96-9.478,9.96-30.338V188.143c-.842-15.1-.24-61.188,33.568-98.28,17.347-19.032,49.556-41.72,104.489-41.72,58.928,0,1259.427,3.39,1862.537,4.209V4.268a8,8,0,0,1,12-6.926l176.076,101.75a8,8,0,0,1,0,13.853L2690.8,214.693a8,8,0,0,1-12-6.926V167.144c-602.422-.816-1793.918-4.208-1852.537-4.208-33.865,0-33.56,47.443-33.512,47.961l.246,138.7c0,58.514-25.278,94.461-46.484,114.313-45.266,42.374-108.088,46.948-133.08,46.948C610.146,510.861,607.516,510.782,605.664,510.7Z" transform="translate(0 0)" fill="#fff"/><path d="M45.249,3.41V-2.305H51.86v16.63H45.112a19.339,19.339,0,0,0-6.99-7.781,17.966,17.966,0,0,0-9.744-2.789,16.059,16.059,0,0,0-9.159,2.7,18.411,18.411,0,0,0-6.284,7.231,21.517,21.517,0,0,0-2.255,9.727,21.205,21.205,0,0,0,2.359,9.916,19.011,19.011,0,0,0,6.49,7.265,16.36,16.36,0,0,0,9.193,2.72,17.207,17.207,0,0,0,11.018-3.8,21.646,21.646,0,0,0,6.99-10.794l6.611,3.512a24.8,24.8,0,0,1-9.486,13.445A27.087,27.087,0,0,1,27.9,50.443,24.861,24.861,0,0,1,5.4,37.17,27.817,27.817,0,0,1,2.142,23.828,29.132,29.132,0,0,1,5.464,9.78,23.9,23.9,0,0,1,14.64.225,26.225,26.225,0,0,1,28.034-3.166a25.169,25.169,0,0,1,9.331,1.687A26.566,26.566,0,0,1,45.249,3.41ZM97.654,33.3H67.32a12.691,12.691,0,0,0,4.028,8.212,11.962,11.962,0,0,0,8.263,3.013,15.073,15.073,0,0,0,6.645-1.481,12.937,12.937,0,0,0,5.13-4.545l6.266,2.823a19.082,19.082,0,0,1-7.764,6.972A23.384,23.384,0,0,1,79.44,50.65a21.606,21.606,0,0,1-10.4-2.445,17.673,17.673,0,0,1-7.076-6.817,19.3,19.3,0,0,1-2.531-9.847,19.438,19.438,0,0,1,2.5-9.813,17.934,17.934,0,0,1,6.835-6.835,20.365,20.365,0,0,1,19.54.069A17.688,17.688,0,0,1,95,22.193,25.59,25.59,0,0,1,97.654,33.3ZM78.476,18.353a10.274,10.274,0,0,0-7.058,2.7A12.424,12.424,0,0,0,67.526,28.2H90.182a12.612,12.612,0,0,0-4.235-7.144A11.315,11.315,0,0,0,78.476,18.353Zm42.247,24.894v6.335h-19.04V43.247h6.4V3.961h-6.4V-2.305h13.531V43.247ZM163.865,33.3H133.531a12.691,12.691,0,0,0,4.028,8.212,11.962,11.962,0,0,0,8.263,3.013,15.073,15.073,0,0,0,6.645-1.481A12.937,12.937,0,0,0,157.6,38.5l6.266,2.823a19.082,19.082,0,0,1-7.764,6.972,23.384,23.384,0,0,1-10.45,2.359,21.606,21.606,0,0,1-10.4-2.445,17.673,17.673,0,0,1-7.076-6.817,19.3,19.3,0,0,1-2.531-9.847,19.438,19.438,0,0,1,2.5-9.813,17.934,17.934,0,0,1,6.835-6.835,20.365,20.365,0,0,1,19.54.069,17.688,17.688,0,0,1,6.7,7.231A25.59,25.59,0,0,1,163.865,33.3ZM144.687,18.353a10.274,10.274,0,0,0-7.058,2.7,12.424,12.424,0,0,0-3.891,7.144h22.656a12.612,12.612,0,0,0-4.235-7.144A11.315,11.315,0,0,0,144.687,18.353Zm49.719-5.922a16.608,16.608,0,0,1,9.021,2.531A17.514,17.514,0,0,1,209.71,21.8a19.73,19.73,0,0,1,2.255,9.3,20.248,20.248,0,0,1-2.29,9.537,18.164,18.164,0,0,1-6.318,6.972,16.282,16.282,0,0,1-9.021,2.6,17.987,17.987,0,0,1-7.523-1.618,13.679,13.679,0,0,1-5.6-4.442v5.44H167.893V43.247h6.4V3.961h-6.4V-2.305h13.325V18.56A17,17,0,0,1,194.405,12.431Zm-1.481,31.436a10.374,10.374,0,0,0,6.025-1.825,12.2,12.2,0,0,0,4.1-4.786,14.172,14.172,0,0,0,1.446-6.3,12.6,12.6,0,0,0-1.481-6.06,11.38,11.38,0,0,0-4.1-4.373,11.029,11.029,0,0,0-5.922-1.618,10.691,10.691,0,0,0-5.922,1.687,11.645,11.645,0,0,0-4.1,4.579,13.922,13.922,0,0,0-1.481,6.439,12.9,12.9,0,0,0,1.515,6.2,11.508,11.508,0,0,0,4.132,4.442A10.782,10.782,0,0,0,192.925,43.867Zm37.6-8.814v8.195h7.885v6.335H216.2V43.247h7.265V19.765H216.2V13.4h12.912V21.59q2.169-4.855,5.388-6.766t9.21-1.911h1.618v7.2H243.78q-5.784,0-8.608,1.515a7.406,7.406,0,0,0-3.736,4.579A32.781,32.781,0,0,0,230.524,35.053ZM280.1,26.169V43.247h6.06v6.335H273.838V45.141a16.082,16.082,0,0,1-11.5,5.061,12.439,12.439,0,0,1-10.553-5.7,10.871,10.871,0,0,1,.172-11.844,12.027,12.027,0,0,1,4.975-4.115,14.915,14.915,0,0,1,6.3-1.446,17.294,17.294,0,0,1,9.882,3.1V26.307q0-4.235-1.79-6.06t-5.888-1.825a10.09,10.09,0,0,0-4.838,1.05,8.4,8.4,0,0,0-3.219,3.185l-6.817-1.687a15.244,15.244,0,0,1,6.232-6.421,19.382,19.382,0,0,1,9.331-2.118q7.265,0,10.622,3.305T280.1,26.169ZM263.3,44.728q5.234,0,9.813-4.373V36.12a15.125,15.125,0,0,0-9.3-3.615,7.2,7.2,0,0,0-4.872,1.773,5.948,5.948,0,0,0-.258,8.746A6.418,6.418,0,0,0,263.3,44.728Zm45-31.332v6.37h-6.611V38.737q0,2.961.637,3.839a2.522,2.522,0,0,0,2.186.878A11.536,11.536,0,0,0,308.3,42.8v6.439a20.1,20.1,0,0,1-5.337.964q-4.476,0-6.439-2.255t-1.963-7.73V19.765h-4.717V13.4h4.717V7.921l7.127-6.507V13.4ZM325.45,1.207a4.138,4.138,0,0,1-1.274,3.03,4.138,4.138,0,0,1-3.03,1.274,4.026,4.026,0,0,1-3-1.274,4.2,4.2,0,0,1-1.24-3.03,4.2,4.2,0,0,1,1.24-3.03,4.026,4.026,0,0,1,3-1.274,4.163,4.163,0,0,1,3.064,1.24A4.163,4.163,0,0,1,325.45,1.207Zm5.1,42.04v6.335H312.263V43.247h5.647V19.765h-5.647V13.4h12.774V43.247Zm38.7-18.008V43.247h6.06v6.335H362.12v-23.9a9.178,9.178,0,0,0-.981-4.889,3.575,3.575,0,0,0-3.219-1.481q-4.751,0-10.674,4.683V43.247h6.232v6.335H333.852V43.247h6.37V19.765h-6.37V13.4h13.394v4.373q6.645-4.855,12.5-4.855,4.855,0,7.179,3T369.247,25.24Zm40.767-6.611V13.4h13.6v6.37h-6.542V46.9q0,9.469-4.769,14.616T398.376,66.66a23,23,0,0,1-14.805-4.889l4.579-5.13a20.034,20.034,0,0,0,4.975,2.737,15.785,15.785,0,0,0,5.457.912,10.769,10.769,0,0,0,8.4-3.34,12.664,12.664,0,0,0,3.03-8.849V44.728a16.241,16.241,0,0,1-5.939,4.338A17.7,17.7,0,0,1,396.9,50.65a16.5,16.5,0,0,1-9.038-2.548,17.852,17.852,0,0,1-6.266-6.766,19.3,19.3,0,0,1-2.255-9.245,19.9,19.9,0,0,1,2.359-9.537,18.573,18.573,0,0,1,6.456-7.024,16.54,16.54,0,0,1,9.09-2.617,16.037,16.037,0,0,1,6.7,1.412A21.477,21.477,0,0,1,410.013,18.629ZM398.238,44.28a11.327,11.327,0,0,0,6.094-1.687,11.7,11.7,0,0,0,4.235-4.545,12.959,12.959,0,0,0,1.515-6.163,12.553,12.553,0,0,0-1.515-5.957,12.311,12.311,0,0,0-4.2-4.614,11.107,11.107,0,0,0-11.879-.069,11.613,11.613,0,0,0-4.132,4.545,13.2,13.2,0,0,0-1.481,6.163,13.662,13.662,0,0,0,1.412,6.2,11.05,11.05,0,0,0,4.011,4.476A10.832,10.832,0,0,0,398.238,44.28Zm78.847-18.111V43.247h6.06v6.335H470.819V45.141a16.082,16.082,0,0,1-11.5,5.061,12.439,12.439,0,0,1-10.553-5.7,10.871,10.871,0,0,1,.172-11.844,12.027,12.027,0,0,1,4.975-4.115,14.915,14.915,0,0,1,6.3-1.446,17.294,17.294,0,0,1,9.882,3.1V26.307q0-4.235-1.79-6.06t-5.888-1.825a10.09,10.09,0,0,0-4.838,1.05,8.4,8.4,0,0,0-3.219,3.185l-6.817-1.687a15.244,15.244,0,0,1,6.232-6.421,19.382,19.382,0,0,1,9.331-2.118q7.265,0,10.622,3.305T477.085,26.169Zm-16.8,18.558q5.234,0,9.813-4.373V36.12a15.125,15.125,0,0,0-9.3-3.615,7.2,7.2,0,0,0-4.872,1.773,5.948,5.948,0,0,0-.258,8.746A6.418,6.418,0,0,0,460.283,44.728Zm95.512-21.864q0,13.325-8.04,20.022t-23.912,6.7H504.458V43.109h6.955V4.168h-6.955V-2.305h19.729q15.942,0,23.775,6.025T555.795,22.864Zm-8.539.344a22,22,0,0,0-2.324-10.777,14.18,14.18,0,0,0-7.368-6.215q-5.044-2.049-13.308-2.049h-4.992V43.109h4.924q11.982,0,17.525-4.8T547.256,23.208ZM600.211,33.3H569.877a12.691,12.691,0,0,0,4.028,8.212,11.962,11.962,0,0,0,8.263,3.013,15.073,15.073,0,0,0,6.645-1.481,12.937,12.937,0,0,0,5.13-4.545l6.266,2.823a19.082,19.082,0,0,1-7.764,6.972A23.385,23.385,0,0,1,582,50.65a21.606,21.606,0,0,1-10.4-2.445,17.673,17.673,0,0,1-7.076-6.817,19.3,19.3,0,0,1-2.531-9.847,19.439,19.439,0,0,1,2.5-9.813,17.934,17.934,0,0,1,6.835-6.835,20.364,20.364,0,0,1,19.54.069,17.688,17.688,0,0,1,6.7,7.231A25.59,25.59,0,0,1,600.211,33.3ZM581.033,18.353a10.274,10.274,0,0,0-7.058,2.7,12.424,12.424,0,0,0-3.891,7.144H592.74a12.612,12.612,0,0,0-4.235-7.144A11.315,11.315,0,0,0,581.033,18.353Zm52.473-2.341V13.4h6.335V27.1h-6.335a8.258,8.258,0,0,0-3.168-6.043,10.271,10.271,0,0,0-6.37-2.083,9.749,9.749,0,0,0-5.561,1.653,10.911,10.911,0,0,0-3.8,4.476,14.164,14.164,0,0,0-1.343,6.163,13.913,13.913,0,0,0,3.03,9.279,9.931,9.931,0,0,0,7.988,3.6q7.678,0,10.846-7.127l5.922,2.823Q636.054,50.65,623.969,50.65a18.153,18.153,0,0,1-9.606-2.548,17.253,17.253,0,0,1-6.49-6.99,21.17,21.17,0,0,1-2.29-9.847,20.089,20.089,0,0,1,2.324-9.641,17.122,17.122,0,0,1,6.387-6.766,17.318,17.318,0,0,1,9.055-2.427A15.214,15.214,0,0,1,633.506,16.012Zm42.729,10.157V43.247h6.06v6.335H669.969V45.141a16.082,16.082,0,0,1-11.5,5.061,12.438,12.438,0,0,1-10.553-5.7,10.871,10.871,0,0,1,.172-11.844,12.027,12.027,0,0,1,4.975-4.115,14.915,14.915,0,0,1,6.3-1.446,17.294,17.294,0,0,1,9.882,3.1V26.307q0-4.235-1.79-6.06t-5.888-1.825a10.09,10.09,0,0,0-4.838,1.05,8.4,8.4,0,0,0-3.219,3.185l-6.817-1.687a15.243,15.243,0,0,1,6.232-6.421,19.382,19.382,0,0,1,9.331-2.118q7.265,0,10.622,3.305T676.235,26.169Zm-16.8,18.558q5.234,0,9.813-4.373V36.12a15.125,15.125,0,0,0-9.3-3.615,7.2,7.2,0,0,0-4.872,1.773,5.948,5.948,0,0,0-.258,8.746A6.418,6.418,0,0,0,659.433,44.728ZM730.6,43.247v6.335H717v-5.3A17.037,17.037,0,0,1,704.021,50.2a17.314,17.314,0,0,1-9.245-2.462,16.927,16.927,0,0,1-6.232-6.7,19.855,19.855,0,0,1-2.221-9.365,20.11,20.11,0,0,1,2.359-9.641,18.259,18.259,0,0,1,6.525-7.007,16.727,16.727,0,0,1,9.021-2.6,16.11,16.11,0,0,1,6.662,1.412A20.215,20.215,0,0,1,717,18.285V3.961h-6.99V-2.305H724.06V43.247Zm-25.238.62a10.548,10.548,0,0,0,5.957-1.756,12.274,12.274,0,0,0,4.166-4.683A13.436,13.436,0,0,0,717,31.162,12.7,12.7,0,0,0,715.487,25a11.411,11.411,0,0,0-10.26-6.025,10.158,10.158,0,0,0-5.836,1.739,12.227,12.227,0,0,0-4.046,4.614,13.75,13.75,0,0,0,.034,12.481,11.507,11.507,0,0,0,4.132,4.442A10.9,10.9,0,0,0,705.364,43.867Zm67-10.57H742.033a12.691,12.691,0,0,0,4.028,8.212,11.962,11.962,0,0,0,8.263,3.013,15.073,15.073,0,0,0,6.645-1.481A12.937,12.937,0,0,0,766.1,38.5l6.266,2.823a19.081,19.081,0,0,1-7.764,6.972,23.385,23.385,0,0,1-10.45,2.359,21.606,21.606,0,0,1-10.4-2.445,17.673,17.673,0,0,1-7.076-6.817,19.3,19.3,0,0,1-2.531-9.847,19.439,19.439,0,0,1,2.5-9.813,17.934,17.934,0,0,1,6.835-6.835,20.364,20.364,0,0,1,19.54.069,17.688,17.688,0,0,1,6.7,7.231A25.59,25.59,0,0,1,772.367,33.3ZM753.189,18.353a10.274,10.274,0,0,0-7.058,2.7A12.424,12.424,0,0,0,742.24,28.2H764.9a12.612,12.612,0,0,0-4.235-7.144A11.315,11.315,0,0,0,753.189,18.353Z" transform="translate(1624.082 81.853)" fill="#0a3e59"/></g></g></svg>