<svg xmlns="http://www.w3.org/2000/svg" width="383.444" height="279" viewBox="0 0 383.444 279"><g transform="translate(-662.156 -1370)"><circle cx="139.5" cy="139.5" r="139.5" transform="translate(706 1370)" fill="#e3f6ff"/><g transform="translate(-19)"><path d="M101.5,36.953V56.735H67.1V91.209H47.389V56.735h-34.4V36.953h34.4V2.406H67.1V36.953Z" transform="translate(668.168 1473.743)" fill="rgba(10,62,89,0.3)"/><path d="M194.689,73.325v40.61h-70.62V184.7H83.608V113.935H12.988V73.325h70.62V2.406h40.461V73.325Z" transform="translate(734.508 1382.594)" fill="#501141"/><path d="M130.176,53.969v16.8H80.566v49.609h-16.6V70.766H14.355v-16.8H63.965V4.359h16.6V53.969Z" transform="translate(874 1457)" fill="#0a3e59"/><path d="M84.6,110.02v-9.36H50.04V63.4H39.78v37.26H5.22v9.36H39.78v38.34H50.04V110.02Z" transform="translate(980 1383)" fill="#1da8de"/></g></g></svg>