<svg xmlns="http://www.w3.org/2000/svg" width="1493.539" height="311.522" viewBox="0 0 1493.539 311.522"><g transform="translate(335.528 -57.851)"><path d="M1101.273,628.275H803v-70h300.333l1.152.076c7.457.367,26.235-1.523,34.949-9.815,1.661-1.58,6.073-5.779,6.073-18.5V431.581c-.514-9.21-.147-37.313,20.47-59.932,10.579-11.605,30.219-25.44,63.718-25.44,35.929,0,590.132,2.067,952.833,2.567V324.862a8,8,0,0,1,12-6.926l98.011,56.638a8,8,0,0,1,0,13.853l-98.011,56.638a8,8,0,0,1-12-6.927V418.774c-362.593-.5-917.092-2.565-952.833-2.565-6.645,0-10.806,1.3-11.984,2.595-1.928,2.115-2.383,8.042-2.354,8.358l.15,102.875c0,35.682-15.415,57.6-28.346,69.708-27.6,25.839-65.911,28.628-81.152,28.628C1104.006,628.373,1102.4,628.325,1101.273,628.275Z" transform="translate(-1138.528 -259)" fill="#fff"/><text transform="translate(400 109)" fill="#0a3e59" font-size="43" font-family="Rockwell-Regular, Rockwell"><tspan x="0" y="29">Celebrating a Decade</tspan></text></g></svg>