<svg xmlns="http://www.w3.org/2000/svg" width="1053.16" height="323.424" viewBox="0 0 1053.16 323.424"><g transform="translate(-54.851 -148.851)"><path d="M1205,640.274v-70h73.917c9.678-1.2,45.211-7.852,45.211-40.237V431.581c-.514-9.21-.146-37.313,20.47-59.932,10.579-11.605,30.22-25.44,63.718-25.44h735.834V324.862a8,8,0,0,1,12-6.926l98.011,56.638a8,8,0,0,1,0,13.853l-98.011,56.638a8,8,0,0,1-12-6.927V416.209H1408.316c-6.645,0-10.806,1.3-11.984,2.595-1.928,2.115-2.383,8.042-2.354,8.358l.15,102.875c0,79.491-72.143,106.781-110.291,110.105l-1.516.132Z" transform="translate(-1150.149 -168)" fill="#fdd47c"></path><text transform="translate(362 196)" fill="#0a3e59" font-size="43" font-family="Rockwell-Regular, Rockwell"><tspan x="0" y="29">of EdReports </tspan></text><text transform="translate(648 184)" fill="#0a3e59" font-size="70" font-family="CenturyGothicPro-BoldItalic, Century Gothic Pro" font-weight="700" font-style="italic"><tspan x="0" y="52">IMPACT</tspan></text></g></svg>