<svg xmlns="http://www.w3.org/2000/svg" width="464" height="276" viewBox="0 0 464 276"><g transform="translate(-621 -2961)"><circle cx="136.5" cy="136.5" r="136.5" transform="translate(717 2961)" fill="#e3f6ff"></circle><circle cx="70.5" cy="70.5" r="70.5" transform="translate(944 3080.967)" fill="#e3f6ff"></circle><circle cx="70.5" cy="70.5" r="70.5" transform="translate(621 3087)" fill="#e3f6ff"></circle><g transform="translate(735.552 2980.739)"><g transform="translate(0 0.002)"><path d="M446.148,354.719A66.92,66.92,0,1,0,333.417,403.5a59.117,59.117,0,0,1,18.668,43.08v1.333a3.675,3.675,0,0,0,3.675,3.676h46.934a3.675,3.675,0,0,0,3.675-3.676v-1.333A59.29,59.29,0,0,1,425.1,403.44a66.731,66.731,0,0,0,21.046-48.722" transform="translate(-260.034 -239.628)" fill="#1da8de"></path><path d="M380.172,433.594H333.238a8.213,8.213,0,0,1-8.2-8.2v-1.333a54.8,54.8,0,0,0-17.241-39.781,71.607,71.607,0,0,1-16.543-23.392A71.4,71.4,0,0,1,356.7,260.747h.156a71.418,71.418,0,0,1,58.168,112.728,71.97,71.97,0,0,1-9.344,10.738,55,55,0,0,0-17.308,39.844v1.333a8.213,8.213,0,0,1-8.2,8.2m-46.082-9.055h45.23v-.481a63.364,63.364,0,0,1,5.278-25.305,64.273,64.273,0,0,1,14.877-21.131A61.813,61.813,0,0,0,419.1,332.2,62.489,62.489,0,0,0,356.84,269.8h-.133a62.392,62.392,0,0,0-42.712,107.874,63.6,63.6,0,0,1,20.1,46.38Z" transform="translate(-237.511 -217.105)" fill="#1da8de"></path><path d="M593.994,1329.648H543.921a3.744,3.744,0,1,1,0-7.488h50.073a3.744,3.744,0,1,1,0,7.488" transform="translate(-449.764 -1100.862)" fill="#1da8de"></path><path d="M589.63,1326.159H539.556a4.621,4.621,0,1,1,0-9.243H589.63a4.621,4.621,0,0,1,0,9.243m-50.073-7.487a2.866,2.866,0,1,0,0,5.733H589.63a2.866,2.866,0,1,0,0-5.733Z" transform="translate(-445.4 -1096.497)" fill="#1da8de"></path><path d="M609.947,1417.552H565.768a2.892,2.892,0,1,1,0-5.783h44.179a2.892,2.892,0,1,1,0,5.783" transform="translate(-468.664 -1175.473)" fill="#1da8de"></path><path d="M601.392,1410.718H557.212a4.611,4.611,0,1,1,0-9.223h44.179a4.611,4.611,0,1,1,0,9.223m-44.179-5.783a1.172,1.172,0,1,0,0,2.343h44.179a1.172,1.172,0,1,0,0-2.343Z" transform="translate(-460.109 -1166.918)" fill="#1da8de"></path><path d="M629.163,1494.353H612a10.323,10.323,0,0,1-7.634-3.257l-2.1-2.307a.359.359,0,0,1,.31-.589h36a.359.359,0,0,1,.31.589l-2.1,2.307a10.323,10.323,0,0,1-7.634,3.257" transform="translate(-501.39 -1239.111)" fill="#1da8de"></path><path d="M624.094,1490.307H606.932a11.3,11.3,0,0,1-8.387-3.59l-2.1-2.307a1.338,1.338,0,0,1-.24-1.458,1.419,1.419,0,0,1,1.3-.834h36a1.419,1.419,0,0,1,1.3.834,1.338,1.338,0,0,1-.24,1.458l-2.1,2.307a11.3,11.3,0,0,1-8.387,3.59m-25.127-6.152,1.085,1.193a9.266,9.266,0,0,0,6.881,2.923h17.161a9.266,9.266,0,0,0,6.881-2.923l1.085-1.193Z" transform="translate(-496.32 -1234.048)" fill="#1da8de"></path><path d="M689.6,38.541a4.528,4.528,0,0,1-4.528-4.528V4.531a4.528,4.528,0,0,1,9.055,0V34.013a4.528,4.528,0,0,1-4.528,4.528" transform="translate(-570.411 -0.003)" fill="#1da8de"></path><path d="M274.847,166.1a4.513,4.513,0,0,1-3.2-1.326L250.8,143.924a4.528,4.528,0,1,1,6.4-6.4l20.847,20.847a4.528,4.528,0,0,1-3.2,7.729" transform="translate(-207.716 -113.399)" fill="#1da8de"></path><path d="M34.009,629.757H4.527a4.528,4.528,0,0,1,0-9.055H34.009a4.528,4.528,0,0,1,0,9.055" transform="translate(0.001 -516.812)" fill="#1da8de"></path><path d="M165.231,1039.84a4.528,4.528,0,0,1-3.2-7.729l20.847-20.847a4.528,4.528,0,1,1,6.4,6.4l-20.847,20.847a4.514,4.514,0,0,1-3.2,1.326" transform="translate(-133.805 -840.898)" fill="#1da8de"></path><path d="M1101.119,1039.84a4.513,4.513,0,0,1-3.2-1.326l-20.847-20.847a4.528,4.528,0,0,1,6.4-6.4l20.847,20.847a4.528,4.528,0,0,1-3.2,7.729" transform="translate(-895.69 -840.898)" fill="#1da8de"></path><path d="M1225.084,657.717H1195.6a4.528,4.528,0,0,1,0-9.055h29.482a4.528,4.528,0,0,1,0,9.055" transform="translate(-991.716 -540.092)" fill="#1da8de"></path><path d="M976.739,166.1a4.528,4.528,0,0,1-3.2-7.729l20.847-20.847a4.528,4.528,0,1,1,6.4,6.4L979.94,164.771a4.513,4.513,0,0,1-3.2,1.326" transform="translate(-809.486 -113.399)" fill="#1da8de"></path><path d="M434.967,437.961q-.224,0-.452-.022a4.528,4.528,0,0,1-4.059-4.952,52.458,52.458,0,0,1,7.29-20.3A45.457,45.457,0,0,1,451.9,398.112c7.063-4.546,15.527-7.155,25.156-7.753a4.528,4.528,0,0,1,.562,9.038c-14.532.9-25.352,6.971-32.159,18.035a43.293,43.293,0,0,0-5.991,16.448,4.528,4.528,0,0,1-4.5,4.081" transform="translate(-358.39 -325.015)" fill="#fff"></path></g></g><g transform="translate(951 3088.706)"><g transform="translate(0 0.002)"><path d="M50.714,92.354H25.637a4.388,4.388,0,0,1-4.383-4.383v-.713A29.276,29.276,0,0,0,12.042,66,38.283,38.283,0,0,1,3.2,53.505,38.149,38.149,0,0,1,38.175,0h.083a38.158,38.158,0,0,1,31.08,60.232,38.364,38.364,0,0,1-4.992,5.737A29.391,29.391,0,0,0,55.1,87.259v.713A4.388,4.388,0,0,1,50.714,92.354ZM38.047,11.591c-.05,0-.1,0-.152,0a27.663,27.663,0,0,0-13.441,4.143,24.28,24.28,0,0,0-7.562,7.787A28.084,28.084,0,0,0,13,34.372a2.419,2.419,0,0,0,2.169,2.646,2.258,2.258,0,0,0,.242.012,2.41,2.41,0,0,0,2.4-2.18,23.356,23.356,0,0,1,3.2-8.788c3.637-5.911,9.418-9.154,17.184-9.637a2.419,2.419,0,0,0-.149-4.834Z" transform="translate(25.51 23.318)" fill="#fdd47c" stroke="rgba(0,0,0,0)" stroke-miterlimit="10" stroke-width="1"></path><path d="M568.932,1326.161H542.177a2,2,0,0,1,0-4h26.755a2,2,0,1,1,0,4" transform="translate(-491.869 -1203.919)" fill="#fdd47c"></path><path d="M564.159,1321.855H537.4a2.469,2.469,0,0,1,0-4.938h26.755a2.469,2.469,0,0,1,0,4.938m-26.755-4a1.531,1.531,0,1,0,0,3.063h26.755a1.531,1.531,0,1,0,0-3.063Z" transform="translate(-487.095 -1199.144)" fill="#fdd47c"></path><path d="M588.026,1414.859H564.421a1.545,1.545,0,0,1,0-3.09h23.605a1.545,1.545,0,1,1,0,3.09" transform="translate(-512.538 -1285.514)" fill="#fdd47c"></path><path d="M578.67,1406.423H555.065a2.464,2.464,0,1,1,0-4.928H578.67a2.464,2.464,0,0,1,0,4.928m-23.605-3.09a.626.626,0,1,0,0,1.252H578.67a.626.626,0,0,0,0-1.252Z" transform="translate(-503.181 -1276.159)" fill="#fdd47c"></path><path d="M616.6,1491.487h-9.169a5.516,5.516,0,0,1-4.079-1.74l-1.12-1.232a.192.192,0,0,1,.166-.315h19.236a.192.192,0,0,1,.166.315l-1.12,1.232a5.516,5.516,0,0,1-4.079,1.74" transform="translate(-548.327 -1355.109)" fill="#fdd47c"></path><path d="M611.053,1486.494h-9.169a6.04,6.04,0,0,1-4.481-1.918l-1.12-1.233a.714.714,0,0,1-.128-.779.758.758,0,0,1,.7-.446h19.236a.758.758,0,0,1,.7.446.714.714,0,0,1-.128.779l-1.12,1.233a6.04,6.04,0,0,1-4.482,1.918m-13.425-3.287.58.638a4.951,4.951,0,0,0,3.677,1.562h9.169a4.95,4.95,0,0,0,3.677-1.562l.58-.638Z" transform="translate(-542.782 -1349.572)" fill="#fdd47c"></path><path d="M687.5,20.594a2.419,2.419,0,0,1-2.419-2.419V2.422a2.419,2.419,0,0,1,4.838,0V18.175a2.419,2.419,0,0,1-2.419,2.419" transform="translate(-623.81 -0.003)" fill="#fdd47c"></path><path d="M263.03,152.172a2.411,2.411,0,0,1-1.711-.709l-11.139-11.139A2.419,2.419,0,0,1,253.6,136.9l11.139,11.139a2.419,2.419,0,0,1-1.711,4.13" transform="translate(-227.161 -124.015)" fill="#fdd47c"></path><path d="M18.171,625.54H2.418a2.419,2.419,0,0,1,0-4.838H18.171a2.419,2.419,0,0,1,0,4.838" transform="translate(0.001 -565.193)" fill="#fdd47c"></path><path d="M163.122,1025.914a2.419,2.419,0,0,1-1.711-4.13l11.139-11.139a2.419,2.419,0,0,1,3.421,3.421l-11.139,11.139a2.411,2.411,0,0,1-1.711.709" transform="translate(-146.331 -919.618)" fill="#fdd47c"></path><path d="M1089.3,1025.914a2.411,2.411,0,0,1-1.711-.709l-11.139-11.139a2.419,2.419,0,0,1,3.421-3.421l11.139,11.139a2.419,2.419,0,0,1-1.711,4.13" transform="translate(-979.539 -919.618)" fill="#fdd47c"></path><path d="M1209.246,653.5h-15.753a2.419,2.419,0,0,1,0-4.838h15.753a2.419,2.419,0,1,1,0,4.838" transform="translate(-1084.555 -590.652)" fill="#fdd47c"></path><path d="M974.63,152.172a2.419,2.419,0,0,1-1.711-4.13L984.058,136.9a2.419,2.419,0,0,1,3.421,3.421l-11.139,11.139a2.411,2.411,0,0,1-1.711.709" transform="translate(-885.265 -124.015)" fill="#fdd47c"></path></g></g><g transform="translate(632 3096.972)"><g transform="translate(0 0.002)"><path d="M50.753,92.425h-25.1a4.391,4.391,0,0,1-4.386-4.386v-.713a29.3,29.3,0,0,0-9.219-21.271A38.306,38.306,0,0,1,3.206,53.546,38.178,38.178,0,0,1,38.2,0h.083a38.187,38.187,0,0,1,31.1,60.278,38.407,38.407,0,0,1-5,5.741,29.413,29.413,0,0,0-9.255,21.306v.713A4.391,4.391,0,0,1,50.753,92.425ZM38.075,11.6c-.05,0-.1,0-.152,0a27.683,27.683,0,0,0-13.452,4.146A24.3,24.3,0,0,0,16.9,23.544a28.105,28.105,0,0,0-3.9,10.854,2.421,2.421,0,0,0,2.17,2.648,2.262,2.262,0,0,0,.242.012,2.412,2.412,0,0,0,2.407-2.182,23.374,23.374,0,0,1,3.2-8.795c3.64-5.916,9.426-9.161,17.2-9.644a2.421,2.421,0,0,0-.149-4.838Z" transform="translate(25.53 23.335)" fill="#0a3e59" stroke="rgba(0,0,0,0)" stroke-miterlimit="10" stroke-width="1"></path><path d="M568.954,1326.164H542.179a2,2,0,1,1,0-4h26.775a2,2,0,1,1,0,4" transform="translate(-491.832 -1203.829)" fill="#0a3e59"></path><path d="M564.181,1321.859H537.406a2.471,2.471,0,0,1,0-4.942h26.775a2.471,2.471,0,0,1,0,4.942m-26.775-4a1.533,1.533,0,0,0,0,3.065h26.775a1.533,1.533,0,0,0,0-3.065Z" transform="translate(-487.059 -1199.055)" fill="#0a3e59"></path><path d="M588.045,1414.861H564.422a1.546,1.546,0,1,1,0-3.092h23.623a1.546,1.546,0,1,1,0,3.092" transform="translate(-512.499 -1285.418)" fill="#0a3e59"></path><path d="M578.69,1406.426H555.067a2.466,2.466,0,1,1,0-4.931H578.69a2.466,2.466,0,0,1,0,4.931m-23.623-3.092a.627.627,0,1,0,0,1.253H578.69a.627.627,0,1,0,0-1.253Z" transform="translate(-503.144 -1276.064)" fill="#0a3e59"></path><path d="M616.609,1491.49h-9.176a5.519,5.519,0,0,1-4.082-1.741l-1.121-1.233a.192.192,0,0,1,.166-.315h19.251a.192.192,0,0,1,.166.315l-1.121,1.233a5.519,5.519,0,0,1-4.082,1.741" transform="translate(-548.286 -1355.008)" fill="#0a3e59"></path><path d="M611.064,1486.5h-9.176a6.044,6.044,0,0,1-4.485-1.919l-1.121-1.234a.715.715,0,0,1-.128-.779.759.759,0,0,1,.7-.446H616.1a.759.759,0,0,1,.7.446.715.715,0,0,1-.128.779l-1.121,1.234a6.044,6.044,0,0,1-4.485,1.919m-13.436-3.29.58.638a4.955,4.955,0,0,0,3.679,1.563h9.176a4.954,4.954,0,0,0,3.679-1.563l.58-.638Z" transform="translate(-542.742 -1349.472)" fill="#0a3e59"></path><path d="M687.5,20.61a2.421,2.421,0,0,1-2.421-2.421V2.424a2.421,2.421,0,0,1,4.842,0V18.189A2.421,2.421,0,0,1,687.5,20.61" transform="translate(-623.764 -0.003)" fill="#0a3e59"></path><path d="M263.04,152.184a2.413,2.413,0,0,1-1.712-.709l-11.147-11.147A2.421,2.421,0,0,1,253.6,136.9l11.147,11.147a2.421,2.421,0,0,1-1.712,4.133" transform="translate(-227.145 -124.006)" fill="#0a3e59"></path><path d="M18.185,625.544H2.42a2.421,2.421,0,1,1,0-4.842H18.185a2.421,2.421,0,0,1,0,4.842" transform="translate(0.001 -565.15)" fill="#0a3e59"></path><path d="M163.124,1025.926a2.421,2.421,0,0,1-1.712-4.133l11.147-11.147a2.421,2.421,0,1,1,3.424,3.424l-11.147,11.147a2.413,2.413,0,0,1-1.712.709" transform="translate(-146.32 -919.55)" fill="#0a3e59"></path><path d="M1089.312,1025.926a2.413,2.413,0,0,1-1.712-.709l-11.147-11.147a2.421,2.421,0,0,1,3.424-3.424l11.147,11.147a2.421,2.421,0,0,1-1.712,4.133" transform="translate(-979.467 -919.55)" fill="#0a3e59"></path><path d="M1209.26,653.5h-15.765a2.421,2.421,0,0,1,0-4.842h15.765a2.421,2.421,0,0,1,0,4.842" transform="translate(-1084.475 -590.608)" fill="#0a3e59"></path><path d="M974.632,152.184a2.421,2.421,0,0,1-1.712-4.133L984.067,136.9a2.421,2.421,0,0,1,3.424,3.424l-11.147,11.147a2.413,2.413,0,0,1-1.712.709" transform="translate(-885.2 -124.006)" fill="#0a3e59"></path></g></g></g></svg>