<svg xmlns="http://www.w3.org/2000/svg" width="333.369" height="197" viewBox="0 0 333.369 197"><g transform="translate(-684.631 -8643)"><circle cx="98.5" cy="98.5" r="98.5" transform="translate(760 8643)" fill="#e3f6ff"></circle><path d="M1325.039,418.048v-3.67H1152.33v3.67a4,4,0,0,1-6.056,3.431l-24.281-14.556a4,4,0,0,1,0-6.862l24.281-14.557a3.992,3.992,0,0,1,6.056,3.431v3.67h172.708v-3.67a4,4,0,0,1,6.056-3.431l24.281,14.556a4,4,0,0,1,0,6.862l-24.281,14.557a3.96,3.96,0,0,1-2.049.576A4,4,0,0,1,1325.039,418.048Z" transform="translate(-384.721 8297.516)" fill="#0a3e59" opacity="0.367"></path><path d="M1152,428.1l-30.763-18.2a4,4,0,0,1,0-6.885l30.763-18.2a3.96,3.96,0,0,1,2.029-.563,4,4,0,0,1,4.007,4.006v5.5h204.112v-5.5a4,4,0,0,1,6.036-3.443l30.763,18.2a4,4,0,0,1,0,6.885l-30.763,18.2a3.992,3.992,0,0,1-6.036-3.443v-5.5H1158.04v5.5a4,4,0,0,1-4.006,4.006A3.964,3.964,0,0,1,1152,428.1Z" transform="translate(-406.132 8335.549)" fill="#1da8de" opacity="0.542"></path><path d="M1406.024,432.978v-7.647h-240.68v7.646a4,4,0,0,1-6.024,3.451l-38.345-22.486a4,4,0,0,1,0-6.9l38.345-22.486a3.992,3.992,0,0,1,6.024,3.451v7.647h240.68v-7.646a4,4,0,0,1,6.024-3.451l38.344,22.486a4,4,0,0,1,0,6.9l-38.344,22.486a3.992,3.992,0,0,1-6.024-3.451Z" transform="translate(-434.369 8380.217)" fill="#501141"></path></g></svg>