<svg xmlns="http://www.w3.org/2000/svg" xmlns:xlink="http://www.w3.org/1999/xlink" width="375.045" height="273" viewBox="0 0 375.045 273"><defs><clipPath id="a"><rect width="93.677" height="93.682" fill="rgba(10,62,89,0.78)"></rect></clipPath><clipPath id="b"><rect width="75.292" height="75.296" fill="rgba(10,62,89,0.6)"></rect></clipPath><clipPath id="c"><rect width="55.559" height="55.562" fill="rgba(10,62,89,0.4)"></rect></clipPath><clipPath id="d"><rect width="204.797" height="204.807" fill="#0a3e59"></rect></clipPath></defs><g transform="translate(-653.514 -4376)"><circle cx="136.5" cy="136.5" r="136.5" transform="translate(722 4376)" fill="#e3f6ff"></circle><g transform="matrix(0.966, 0.259, -0.259, 0.966, 863.719, 4398.117)"><g transform="translate(0 0)" clip-path="url('#a')"><path d="M41.829,0A6.15,6.15,0,0,0,35.845,4.6L34.565,9.407A39.62,39.62,0,0,0,29.032,11.7L24.717,9.207a6.1,6.1,0,0,0-7.467.993l-7.06,7.06a6.108,6.108,0,0,0-1,7.485l2.5,4.31a39.9,39.9,0,0,0-2.293,5.523L4.562,35.871A6.137,6.137,0,0,0,0,41.852v10a6.143,6.143,0,0,0,4.581,5.984L9.389,59.12a39.6,39.6,0,0,0,2.293,5.531l-2.5,4.315a6.1,6.1,0,0,0,.993,7.467l7.061,7.06a6.106,6.106,0,0,0,7.485,1L29.037,82a39.76,39.76,0,0,0,5.531,2.292l1.286,4.828a6.137,6.137,0,0,0,5.981,4.562h10A6.141,6.141,0,0,0,57.82,89.1l1.282-4.81A39.593,39.593,0,0,0,64.634,82L68.949,84.5a6.1,6.1,0,0,0,7.467-.993l7.058-7.06a6.109,6.109,0,0,0,1-7.487l-2.5-4.31a39.766,39.766,0,0,0,2.293-5.531L89.1,57.83a6.176,6.176,0,0,0,4.575-5.981v-10a6.152,6.152,0,0,0-4.588-5.984l-4.813-1.3a39.3,39.3,0,0,0-2.293-5.523l2.5-4.313a6.107,6.107,0,0,0-.993-7.468L76.424,10.2a6.113,6.113,0,0,0-7.485-1L64.629,11.7A40.1,40.1,0,0,0,59.106,9.4L57.812,4.576A6.148,6.148,0,0,0,51.831,0h-10ZM52.513,6.012,54.2,12.289a2.737,2.737,0,0,0,1.889,1.928,34.03,34.03,0,0,1,7.252,3.01,2.746,2.746,0,0,0,2.713-.018l5.624-3.253a.662.662,0,0,1,.859.124l7.075,7.078a.65.65,0,0,1,.111.837l-3.256,5.627a2.75,2.75,0,0,0-.017,2.713,34,34,0,0,1,3.011,7.253,2.742,2.742,0,0,0,1.924,1.889l6.266,1.683a.687.687,0,0,1,.536.687v9.98a.7.7,0,0,1-.518.7l-6.277,1.676A2.74,2.74,0,0,0,79.458,56.1a33.967,33.967,0,0,1-3.011,7.262,2.741,2.741,0,0,0,.017,2.713L79.72,71.7a.664.664,0,0,1-.124.86l-7.073,7.073a.65.65,0,0,1-.839.109l-5.627-3.253a2.737,2.737,0,0,0-2.713-.018,34.046,34.046,0,0,1-7.262,3.011,2.731,2.731,0,0,0-1.893,1.931l-1.671,6.259a.683.683,0,0,1-.687.521h-10a.671.671,0,0,1-.682-.508l-1.674-6.277a2.74,2.74,0,0,0-1.894-1.931,33.847,33.847,0,0,1-7.262-3.011,2.741,2.741,0,0,0-1.34-.352,2.806,2.806,0,0,0-1.373.367l-5.622,3.253a.664.664,0,0,1-.86-.124l-7.075-7.073a.658.658,0,0,1-.109-.842l3.253-5.627a2.746,2.746,0,0,0,.018-2.713,34,34,0,0,1-3.01-7.262A2.737,2.737,0,0,0,12.268,54.2L6.009,52.527a.68.68,0,0,1-.523-.687v-10A.677.677,0,0,1,6,41.152l6.279-1.684A2.732,2.732,0,0,0,14.2,37.578a34.12,34.12,0,0,1,3.011-7.252,2.733,2.733,0,0,0-.018-2.713L13.943,21.99a.666.666,0,0,1,.122-.86l7.075-7.073a.648.648,0,0,1,.842-.109L27.609,17.2a2.746,2.746,0,0,0,2.713.018,34.052,34.052,0,0,1,7.262-3.011,2.737,2.737,0,0,0,1.894-1.931l1.669-6.259a.684.684,0,0,1,.687-.534h10A.687.687,0,0,1,52.523,6ZM21.826,46.844a25.007,25.007,0,1,0,25.013-25A25.042,25.042,0,0,0,21.826,46.844Zm44.523,0A19.521,19.521,0,1,1,46.834,27.329,19.544,19.544,0,0,1,66.349,46.844" transform="translate(0 0)" fill="rgba(10,62,89,0.78)"></path></g></g><g transform="translate(908 4490.644)"><g transform="translate(0 0)" clip-path="url('#b')"><path d="M33.62,0A4.943,4.943,0,0,0,28.81,3.7L27.781,7.561A31.845,31.845,0,0,0,23.334,9.4l-3.468-2a4.9,4.9,0,0,0-6,.8L8.19,13.872a4.91,4.91,0,0,0-.806,6.016L9.39,23.352a32.068,32.068,0,0,0-1.843,4.439l-3.88,1.04A4.933,4.933,0,0,0,0,33.638v8.039a4.938,4.938,0,0,0,3.682,4.81l3.864,1.031A31.828,31.828,0,0,0,9.39,51.963L7.384,55.431a4.905,4.905,0,0,0,.8,6l5.676,5.674a4.908,4.908,0,0,0,6.016.806l3.464-2a31.956,31.956,0,0,0,4.446,1.842l1.033,3.88A4.933,4.933,0,0,0,33.624,75.3h8.039a4.936,4.936,0,0,0,4.81-3.681L47.5,67.751a31.822,31.822,0,0,0,4.446-1.842l3.468,2a4.905,4.905,0,0,0,6-.8l5.673-5.674a4.91,4.91,0,0,0,.807-6.017l-2.005-3.464a31.962,31.962,0,0,0,1.843-4.446l3.879-1.033a4.964,4.964,0,0,0,3.677-4.807V33.634a4.944,4.944,0,0,0-3.688-4.81l-3.868-1.041a31.585,31.585,0,0,0-1.843-4.439L67.9,19.878a4.909,4.909,0,0,0-.8-6L61.425,8.2a4.913,4.913,0,0,0-6.016-.8l-3.464,2a32.232,32.232,0,0,0-4.439-1.843l-1.04-3.879A4.941,4.941,0,0,0,41.659,0H33.62Zm8.587,4.829L43.56,9.877a2.2,2.2,0,0,0,1.519,1.549,27.351,27.351,0,0,1,5.829,2.419,2.207,2.207,0,0,0,2.181-.015l4.52-2.614a.532.532,0,0,1,.69.1l5.686,5.689a.522.522,0,0,1,.089.673L61.457,22.2a2.21,2.21,0,0,0-.013,2.181,27.326,27.326,0,0,1,2.42,5.83A2.2,2.2,0,0,0,65.41,31.73l5.036,1.352a.552.552,0,0,1,.431.552v8.021a.558.558,0,0,1-.416.565l-5.045,1.347a2.2,2.2,0,0,0-1.552,1.521,27.3,27.3,0,0,1-2.42,5.837,2.2,2.2,0,0,0,.013,2.181l2.617,4.52a.533.533,0,0,1-.1.692L58.289,64a.523.523,0,0,1-.674.088l-4.523-2.614a2.2,2.2,0,0,0-2.181-.015,27.364,27.364,0,0,1-5.837,2.42,2.2,2.2,0,0,0-1.521,1.552l-1.343,5.031a.549.549,0,0,1-.552.419H33.62a.539.539,0,0,1-.548-.408L31.726,65.43A2.2,2.2,0,0,0,30.2,63.878a27.2,27.2,0,0,1-5.837-2.42,2.2,2.2,0,0,0-1.077-.283,2.256,2.256,0,0,0-1.1.3l-4.519,2.614a.534.534,0,0,1-.691-.1L11.29,58.3a.528.528,0,0,1-.088-.677L13.817,53.1a2.207,2.207,0,0,0,.015-2.181,27.326,27.326,0,0,1-2.419-5.837A2.2,2.2,0,0,0,9.86,43.56L4.83,42.218a.547.547,0,0,1-.42-.552V33.628a.544.544,0,0,1,.411-.552l5.047-1.354A2.2,2.2,0,0,0,11.415,30.2a27.424,27.424,0,0,1,2.42-5.829,2.2,2.2,0,0,0-.015-2.181l-2.614-4.52a.535.535,0,0,1,.1-.691L16.991,11.3a.521.521,0,0,1,.677-.088l4.523,2.614a2.207,2.207,0,0,0,2.181.015,27.369,27.369,0,0,1,5.837-2.42A2.2,2.2,0,0,0,31.73,9.867l1.342-5.031a.55.55,0,0,1,.552-.43h8.039a.552.552,0,0,1,.552.419ZM17.543,37.65a20.1,20.1,0,1,0,20.1-20.093A20.127,20.127,0,0,0,17.543,37.65Zm35.785,0A15.69,15.69,0,1,1,37.643,21.965,15.708,15.708,0,0,1,53.328,37.65" transform="translate(0 0)" fill="rgba(10,62,89,0.6)"></path></g></g><g transform="translate(973 4462.862)"><g transform="translate(0 0)" clip-path="url('#c')"><path d="M24.809,0a3.648,3.648,0,0,0-3.549,2.725L20.5,5.58a23.5,23.5,0,0,0-3.281,1.36L14.659,5.461a3.618,3.618,0,0,0-4.429.589L6.044,10.237a3.623,3.623,0,0,0-.595,4.439l1.48,2.556a23.664,23.664,0,0,0-1.36,3.276l-2.863.767A3.64,3.64,0,0,0,0,24.823v5.932A3.644,3.644,0,0,0,2.717,34.3l2.852.76a23.486,23.486,0,0,0,1.36,3.28L5.449,40.9a3.62,3.62,0,0,0,.589,4.429l4.188,4.187a3.621,3.621,0,0,0,4.439.595l2.556-1.479a23.581,23.581,0,0,0,3.28,1.359l.762,2.863a3.64,3.64,0,0,0,3.547,2.705h5.932a3.642,3.642,0,0,0,3.549-2.716l.76-2.853a23.482,23.482,0,0,0,3.28-1.359l2.559,1.479a3.62,3.62,0,0,0,4.429-.589l4.186-4.187a3.623,3.623,0,0,0,.6-4.44l-1.48-2.556a23.585,23.585,0,0,0,1.36-3.28l2.862-.762a3.663,3.663,0,0,0,2.713-3.547V24.82a3.648,3.648,0,0,0-2.721-3.549L49.984,20.5a23.307,23.307,0,0,0-1.36-3.276l1.48-2.558a3.622,3.622,0,0,0-.589-4.43L45.326,6.052a3.625,3.625,0,0,0-4.439-.594L38.331,6.937a23.785,23.785,0,0,0-3.276-1.36l-.767-2.862A3.646,3.646,0,0,0,30.741,0H24.809Zm6.336,3.563,1,3.723a1.623,1.623,0,0,0,1.121,1.143,20.183,20.183,0,0,1,4.3,1.785,1.628,1.628,0,0,0,1.609-.011L42.51,8.277a.393.393,0,0,1,.509.074l4.2,4.2a.385.385,0,0,1,.066.5L45.35,16.383a1.631,1.631,0,0,0-.01,1.609,20.164,20.164,0,0,1,1.786,4.3,1.626,1.626,0,0,0,1.141,1.121l3.716,1a.407.407,0,0,1,.318.407v5.919a.412.412,0,0,1-.307.417l-3.723.994a1.625,1.625,0,0,0-1.145,1.123,20.145,20.145,0,0,1-1.786,4.307,1.626,1.626,0,0,0,.01,1.609l1.931,3.335a.394.394,0,0,1-.074.51l-4.195,4.195a.386.386,0,0,1-.5.065l-3.337-1.929a1.624,1.624,0,0,0-1.609-.011,20.192,20.192,0,0,1-4.307,1.786,1.62,1.62,0,0,0-1.123,1.145L31.148,52a.405.405,0,0,1-.407.309H24.809a.4.4,0,0,1-.4-.3l-.993-3.723a1.625,1.625,0,0,0-1.124-1.145,20.074,20.074,0,0,1-4.307-1.786,1.625,1.625,0,0,0-.795-.209,1.664,1.664,0,0,0-.814.218l-3.334,1.929a.394.394,0,0,1-.51-.074l-4.2-4.195a.39.39,0,0,1-.065-.5L10.2,39.184a1.628,1.628,0,0,0,.011-1.609,20.164,20.164,0,0,1-1.785-4.307,1.623,1.623,0,0,0-1.145-1.124l-3.712-.99a.4.4,0,0,1-.31-.407V24.815a.4.4,0,0,1,.3-.407l3.724-1a1.62,1.62,0,0,0,1.142-1.121,20.236,20.236,0,0,1,1.786-4.3,1.621,1.621,0,0,0-.011-1.609L8.269,13.042a.4.4,0,0,1,.073-.51l4.2-4.195a.384.384,0,0,1,.5-.065L16.375,10.2a1.628,1.628,0,0,0,1.609.011,20.2,20.2,0,0,1,4.307-1.786,1.623,1.623,0,0,0,1.124-1.145l.99-3.712a.406.406,0,0,1,.407-.317h5.932a.407.407,0,0,1,.407.309Zm-18.2,24.217A14.832,14.832,0,1,0,27.78,12.956,14.852,14.852,0,0,0,12.945,27.783Zm26.406,0A11.578,11.578,0,1,1,27.777,16.209,11.591,11.591,0,0,1,39.351,27.783" transform="translate(0 0)" fill="rgba(10,62,89,0.4)"></path></g></g><g transform="translate(653.514 4408.643)"><g transform="translate(0 0)" clip-path="url('#d')"><path d="M91.448.008A13.445,13.445,0,0,0,78.364,10.053l-2.8,10.511a86.618,86.618,0,0,0-12.1,5.013l-9.433-5.451A13.335,13.335,0,0,0,37.712,22.3L22.278,37.731a13.354,13.354,0,0,0-2.192,16.364l5.455,9.423a87.227,87.227,0,0,0-5.013,12.074L9.972,78.42A13.417,13.417,0,0,0,0,91.5v21.865a13.431,13.431,0,0,0,10.016,13.083l10.511,2.8a86.573,86.573,0,0,0,5.013,12.092l-5.455,9.433a13.342,13.342,0,0,0,2.17,16.324l15.438,15.434a13.349,13.349,0,0,0,16.364,2.192l9.423-5.451a86.924,86.924,0,0,0,12.092,5.01l2.81,10.555a13.417,13.417,0,0,0,13.076,9.972h21.865A13.425,13.425,0,0,0,126.407,194.8l2.8-10.515a86.56,86.56,0,0,0,12.092-5.01l9.433,5.451a13.342,13.342,0,0,0,16.324-2.17l15.431-15.434a13.356,13.356,0,0,0,2.2-16.367l-5.455-9.423a86.938,86.938,0,0,0,5.013-12.092l10.551-2.81a13.5,13.5,0,0,0,10-13.076V91.485A13.449,13.449,0,0,0,194.766,78.4l-10.522-2.832A85.913,85.913,0,0,0,179.231,63.5l5.455-9.43a13.352,13.352,0,0,0-2.17-16.328L167.077,22.3a13.364,13.364,0,0,0-16.364-2.188l-9.423,5.451a87.673,87.673,0,0,0-12.074-5.013L126.389,10A13.44,13.44,0,0,0,113.313,0H91.448ZM114.8,13.142l3.682,13.723a5.984,5.984,0,0,0,4.131,4.214,74.4,74.4,0,0,1,15.854,6.579,6,6,0,0,0,5.932-.04L156.7,30.508a1.447,1.447,0,0,1,1.877.271L174.04,46.253a1.421,1.421,0,0,1,.242,1.83l-7.118,12.3a6.012,6.012,0,0,0-.036,5.932,74.327,74.327,0,0,1,6.583,15.857,5.994,5.994,0,0,0,4.207,4.131l13.7,3.679a1.5,1.5,0,0,1,1.172,1.5V113.3a1.519,1.519,0,0,1-1.132,1.537L177.932,118.5a5.991,5.991,0,0,0-4.221,4.138,74.259,74.259,0,0,1-6.583,15.875,5.993,5.993,0,0,0,.036,5.932l7.118,12.295a1.451,1.451,0,0,1-.271,1.881l-15.463,15.463a1.421,1.421,0,0,1-1.834.239l-12.3-7.111a5.985,5.985,0,0,0-5.932-.04,74.43,74.43,0,0,1-15.875,6.583,5.972,5.972,0,0,0-4.138,4.221l-3.653,13.683a1.493,1.493,0,0,1-1.5,1.139H91.448a1.467,1.467,0,0,1-1.49-1.11L86.3,177.97a5.989,5.989,0,0,0-4.142-4.221,74,74,0,0,1-15.875-6.583,5.991,5.991,0,0,0-2.93-.77,6.136,6.136,0,0,0-3,.8l-12.291,7.111a1.452,1.452,0,0,1-1.881-.271L30.709,158.575a1.438,1.438,0,0,1-.239-1.841l7.111-12.3a6,6,0,0,0,.04-5.932,74.326,74.326,0,0,1-6.58-15.875,5.983,5.983,0,0,0-4.221-4.142l-13.683-3.65a1.487,1.487,0,0,1-1.143-1.5V91.467a1.481,1.481,0,0,1,1.118-1.5l13.727-3.682a5.973,5.973,0,0,0,4.21-4.131A74.593,74.593,0,0,1,37.632,66.3a5.976,5.976,0,0,0-.04-5.932L30.481,48.072a1.456,1.456,0,0,1,.268-1.881L46.216,30.728a1.416,1.416,0,0,1,1.841-.239l12.3,7.111a6,6,0,0,0,5.932.04,74.445,74.445,0,0,1,15.875-6.583,5.983,5.983,0,0,0,4.142-4.221l3.65-13.683a1.5,1.5,0,0,1,1.5-1.168h21.865a1.5,1.5,0,0,1,1.5,1.139ZM47.717,102.408A54.671,54.671,0,1,0,102.4,47.754,54.746,54.746,0,0,0,47.717,102.408Zm97.336,0a42.676,42.676,0,1,1-42.664-42.664,42.726,42.726,0,0,1,42.664,42.664" transform="translate(0 0.002)" fill="#0a3e59"></path></g></g></g></svg>