<svg xmlns="http://www.w3.org/2000/svg" width="489.704" height="87.253" viewBox="0 0 489.704 87.253"><g transform="translate(128.199 -45.475)"><path d="M-419.466,1384.925v-9.449c-40.518-.034-95.053.012-154.076.057-86.316.067-182.237.133-257.973-.046-.268.072.24-46.947.24-49.128,76.183.179,172.163.112,258.368.045,58.834-.046,113.115-.092,153.442-.059V1313.7a8,8,0,0,1,12.005-6.925l61.576,35.615a8,8,0,0,1,0,13.85l-61.576,35.615a7.934,7.934,0,0,1-3.993,1.087A8.01,8.01,0,0,1-419.466,1384.925Z" transform="translate(703.394 -1260.209)" fill="#fff"></path><path d="M17.163-.874V-2.866h2.3v5.8H17.115A6.739,6.739,0,0,0,14.68.217a6.26,6.26,0,0,0-3.4-.972A5.6,5.6,0,0,0,8.093.187,6.416,6.416,0,0,0,5.9,2.707,7.5,7.5,0,0,0,5.117,6.1a7.389,7.389,0,0,0,.822,3.455A6.625,6.625,0,0,0,8.2,12.083a5.7,5.7,0,0,0,3.2.948,6,6,0,0,0,3.839-1.326,7.543,7.543,0,0,0,2.436-3.761l2.3,1.224a8.641,8.641,0,0,1-3.305,4.685,9.439,9.439,0,0,1-5.561,1.662A8.663,8.663,0,0,1,3.275,10.89,9.693,9.693,0,0,1,2.142,6.24,10.151,10.151,0,0,1,3.3,1.345,8.327,8.327,0,0,1,6.5-1.984a9.139,9.139,0,0,1,4.667-1.182,8.771,8.771,0,0,1,3.251.588A9.257,9.257,0,0,1,17.163-.874ZM35.424,9.54H24.854a4.422,4.422,0,0,0,1.4,2.862,4.168,4.168,0,0,0,2.88,1.05,5.252,5.252,0,0,0,2.316-.516,4.508,4.508,0,0,0,1.788-1.584l2.184.984a6.649,6.649,0,0,1-2.706,2.43,8.149,8.149,0,0,1-3.641.822,7.529,7.529,0,0,1-3.623-.852,6.159,6.159,0,0,1-2.466-2.376,6.725,6.725,0,0,1-.882-3.431,6.774,6.774,0,0,1,.87-3.419,6.249,6.249,0,0,1,2.382-2.382,7.1,7.1,0,0,1,6.809.024A6.164,6.164,0,0,1,34.5,5.671,8.917,8.917,0,0,1,35.424,9.54ZM28.741,4.333a3.58,3.58,0,0,0-2.46.942,4.329,4.329,0,0,0-1.356,2.49h7.895a4.395,4.395,0,0,0-1.476-2.49A3.943,3.943,0,0,0,28.741,4.333Zm14.722,8.675v2.208H36.828V13.007H39.06V-.682H36.828V-2.866h4.715V13.007ZM58.5,9.54H47.926a4.422,4.422,0,0,0,1.4,2.862,4.168,4.168,0,0,0,2.88,1.05,5.252,5.252,0,0,0,2.316-.516,4.508,4.508,0,0,0,1.788-1.584l2.184.984a6.649,6.649,0,0,1-2.706,2.43,8.149,8.149,0,0,1-3.641.822,7.529,7.529,0,0,1-3.623-.852,6.159,6.159,0,0,1-2.466-2.376,6.725,6.725,0,0,1-.882-3.431,6.774,6.774,0,0,1,.87-3.419A6.249,6.249,0,0,1,48.43,3.127a7.1,7.1,0,0,1,6.809.024,6.164,6.164,0,0,1,2.334,2.52A8.917,8.917,0,0,1,58.5,9.54ZM51.814,4.333a3.58,3.58,0,0,0-2.46.942A4.329,4.329,0,0,0,48,7.764h7.895a4.395,4.395,0,0,0-1.476-2.49A3.943,3.943,0,0,0,51.814,4.333ZM69.139,2.269a5.787,5.787,0,0,1,3.143.882,6.1,6.1,0,0,1,2.19,2.382,6.875,6.875,0,0,1,.786,3.239,7.056,7.056,0,0,1-.8,3.323,6.33,6.33,0,0,1-2.2,2.43,5.674,5.674,0,0,1-3.144.906,6.268,6.268,0,0,1-2.622-.564,4.767,4.767,0,0,1-1.95-1.548v1.9H59.9V13.007h2.232V-.682H59.9V-2.866h4.643V4.4A5.925,5.925,0,0,1,69.139,2.269Zm-.516,10.954a3.615,3.615,0,0,0,2.1-.636A4.252,4.252,0,0,0,72.15,10.92a4.938,4.938,0,0,0,.5-2.2,4.389,4.389,0,0,0-.516-2.112A3.966,3.966,0,0,0,70.71,5.089a3.843,3.843,0,0,0-2.064-.564,3.726,3.726,0,0,0-2.064.588,4.058,4.058,0,0,0-1.428,1.6,4.851,4.851,0,0,0-.516,2.244,4.5,4.5,0,0,0,.528,2.16,4.01,4.01,0,0,0,1.44,1.548A3.757,3.757,0,0,0,68.623,13.223Zm13.1-3.071v2.856h2.748v2.208H76.733V13.007h2.532V4.825H76.733V2.605h4.5V5.461A4.982,4.982,0,0,1,83.11,3.1a6.346,6.346,0,0,1,3.209-.666h.564V4.945h-.54a6.576,6.576,0,0,0-3,.528,2.581,2.581,0,0,0-1.3,1.6A11.423,11.423,0,0,0,81.725,10.152ZM99,7.056v5.951h2.112v2.208h-4.3V13.667a5.6,5.6,0,0,1-4.007,1.764,4.334,4.334,0,0,1-3.677-1.986,3.788,3.788,0,0,1,.06-4.127,4.191,4.191,0,0,1,1.734-1.434,5.2,5.2,0,0,1,2.2-.5,6.026,6.026,0,0,1,3.443,1.08V7.1a2.948,2.948,0,0,0-.624-2.112,2.789,2.789,0,0,0-2.052-.636,3.516,3.516,0,0,0-1.686.366,2.926,2.926,0,0,0-1.122,1.11l-2.376-.588a5.312,5.312,0,0,1,2.172-2.238,6.754,6.754,0,0,1,3.251-.738,5.112,5.112,0,0,1,3.7,1.152A4.92,4.92,0,0,1,99,7.056Zm-5.855,6.467A4.892,4.892,0,0,0,96.566,12V10.524a5.271,5.271,0,0,0-3.239-1.26,2.509,2.509,0,0,0-1.7.618,2.073,2.073,0,0,0-.09,3.048A2.236,2.236,0,0,0,93.147,13.523ZM108.828,2.605v2.22h-2.3v6.611a2.6,2.6,0,0,0,.222,1.338.879.879,0,0,0,.762.306,4.02,4.02,0,0,0,1.32-.228V15.1a7,7,0,0,1-1.86.336,2.834,2.834,0,0,1-2.244-.786,4.124,4.124,0,0,1-.684-2.694V4.825H102.4V2.605h1.644V.7l2.484-2.268V2.605ZM114.8-1.642a1.442,1.442,0,0,1-.444,1.056,1.442,1.442,0,0,1-1.056.444,1.4,1.4,0,0,1-1.044-.444,1.462,1.462,0,0,1-.432-1.056A1.462,1.462,0,0,1,112.26-2.7a1.4,1.4,0,0,1,1.044-.444,1.45,1.45,0,0,1,1.068.432A1.45,1.45,0,0,1,114.8-1.642Zm1.776,14.65v2.208h-6.371V13.007h1.968V4.825h-1.968V2.605h4.451v10.4Zm13.486-6.275v6.275h2.112v2.208h-4.6V6.888a3.2,3.2,0,0,0-.342-1.7,1.246,1.246,0,0,0-1.122-.516A6.272,6.272,0,0,0,122.4,6.3v6.707h2.172v2.208h-6.839V13.007h2.22V4.825h-2.22V2.605H122.4V4.129a7.514,7.514,0,0,1,4.355-1.692,2.968,2.968,0,0,1,2.5,1.044A5.3,5.3,0,0,1,130.065,6.732Zm14.206-2.3V2.605h4.739v2.22h-2.28v9.454a7.219,7.219,0,0,1-1.662,5.093,6.292,6.292,0,0,1-4.853,1.794,8.015,8.015,0,0,1-5.159-1.7l1.6-1.788a6.981,6.981,0,0,0,1.734.954,5.5,5.5,0,0,0,1.9.318,3.752,3.752,0,0,0,2.928-1.164A4.413,4.413,0,0,0,144.27,14.7V13.523a5.659,5.659,0,0,1-2.07,1.512,6.167,6.167,0,0,1-2.5.552,5.75,5.75,0,0,1-3.15-.888,6.22,6.22,0,0,1-2.184-2.358,6.724,6.724,0,0,1-.786-3.221A6.935,6.935,0,0,1,134.4,5.8a6.472,6.472,0,0,1,2.25-2.448,5.763,5.763,0,0,1,3.167-.912,5.588,5.588,0,0,1,2.334.492A7.484,7.484,0,0,1,144.27,4.429Zm-4.1,8.939a3.947,3.947,0,0,0,2.124-.588,4.076,4.076,0,0,0,1.476-1.584,4.516,4.516,0,0,0,.528-2.148,4.374,4.374,0,0,0-.528-2.076A4.29,4.29,0,0,0,142.3,5.365a3.871,3.871,0,0,0-4.139-.024,4.047,4.047,0,0,0-1.44,1.584,4.6,4.6,0,0,0-.516,2.148,4.761,4.761,0,0,0,.492,2.16,3.851,3.851,0,0,0,1.4,1.56A3.774,3.774,0,0,0,140.167,13.367Zm27.476-6.311v5.951h2.112v2.208h-4.3V13.667a5.6,5.6,0,0,1-4.007,1.764,4.334,4.334,0,0,1-3.677-1.986,3.788,3.788,0,0,1,.06-4.127,4.191,4.191,0,0,1,1.734-1.434,5.2,5.2,0,0,1,2.2-.5,6.026,6.026,0,0,1,3.443,1.08V7.1a2.948,2.948,0,0,0-.624-2.112,2.789,2.789,0,0,0-2.052-.636,3.516,3.516,0,0,0-1.686.366,2.925,2.925,0,0,0-1.122,1.11l-2.376-.588a5.312,5.312,0,0,1,2.172-2.238,6.754,6.754,0,0,1,3.251-.738,5.112,5.112,0,0,1,3.7,1.152A4.92,4.92,0,0,1,167.643,7.056Zm-5.855,6.467A4.892,4.892,0,0,0,165.207,12V10.524a5.271,5.271,0,0,0-3.239-1.26,2.509,2.509,0,0,0-1.7.618,2.073,2.073,0,0,0-.09,3.048A2.236,2.236,0,0,0,161.788,13.523ZM195.07,5.9q0,4.643-2.8,6.977t-8.333,2.334h-6.755V12.959H179.6V-.61h-2.424V-2.866h6.875q5.555,0,8.285,2.1T195.07,5.9Zm-2.976.12a7.665,7.665,0,0,0-.81-3.755A4.941,4.941,0,0,0,188.717.1,12.531,12.531,0,0,0,184.08-.61h-1.74v13.57h1.716q4.175,0,6.107-1.674T192.095,6.024ZM210.548,9.54h-10.57a4.422,4.422,0,0,0,1.4,2.862,4.168,4.168,0,0,0,2.88,1.05,5.252,5.252,0,0,0,2.316-.516,4.508,4.508,0,0,0,1.788-1.584l2.184.984a6.649,6.649,0,0,1-2.706,2.43,8.149,8.149,0,0,1-3.641.822,7.529,7.529,0,0,1-3.623-.852,6.159,6.159,0,0,1-2.466-2.376,6.725,6.725,0,0,1-.882-3.431,6.774,6.774,0,0,1,.87-3.419,6.249,6.249,0,0,1,2.382-2.382,7.1,7.1,0,0,1,6.809.024,6.164,6.164,0,0,1,2.334,2.52A8.917,8.917,0,0,1,210.548,9.54Zm-6.683-5.207a3.58,3.58,0,0,0-2.46.942,4.329,4.329,0,0,0-1.356,2.49h7.895a4.395,4.395,0,0,0-1.476-2.49A3.943,3.943,0,0,0,203.865,4.333Zm18.285-.816V2.605h2.208V7.38H222.15a2.878,2.878,0,0,0-1.1-2.106,3.579,3.579,0,0,0-2.22-.726,3.4,3.4,0,0,0-1.938.576,3.8,3.8,0,0,0-1.326,1.56,4.935,4.935,0,0,0-.468,2.148,4.848,4.848,0,0,0,1.056,3.233,3.46,3.46,0,0,0,2.784,1.254,3.847,3.847,0,0,0,3.779-2.484l2.064.984a6.069,6.069,0,0,1-5.951,3.767,6.326,6.326,0,0,1-3.347-.888,6.012,6.012,0,0,1-2.262-2.436,7.377,7.377,0,0,1-.8-3.431,7,7,0,0,1,.81-3.359,5.966,5.966,0,0,1,2.226-2.358,6.035,6.035,0,0,1,3.155-.846A5.3,5.3,0,0,1,222.15,3.517Zm14.89,3.539v5.951h2.112v2.208h-4.3V13.667a5.6,5.6,0,0,1-4.007,1.764,4.334,4.334,0,0,1-3.677-1.986,3.788,3.788,0,0,1,.06-4.127,4.191,4.191,0,0,1,1.734-1.434,5.2,5.2,0,0,1,2.2-.5A6.026,6.026,0,0,1,234.6,8.46V7.1a2.948,2.948,0,0,0-.624-2.112,2.789,2.789,0,0,0-2.052-.636,3.516,3.516,0,0,0-1.686.366,2.926,2.926,0,0,0-1.122,1.11l-2.376-.588a5.312,5.312,0,0,1,2.172-2.238,6.754,6.754,0,0,1,3.251-.738,5.112,5.112,0,0,1,3.7,1.152A4.92,4.92,0,0,1,237.039,7.056Zm-5.855,6.467A4.892,4.892,0,0,0,234.6,12V10.524a5.27,5.27,0,0,0-3.239-1.26,2.509,2.509,0,0,0-1.7.618,2.073,2.073,0,0,0-.09,3.048A2.236,2.236,0,0,0,231.184,13.523Zm24.8-.516v2.208h-4.739V13.367a5.937,5.937,0,0,1-4.523,2.064,6.033,6.033,0,0,1-3.221-.858,5.9,5.9,0,0,1-2.172-2.334,6.919,6.919,0,0,1-.774-3.263,7.007,7.007,0,0,1,.822-3.359,6.363,6.363,0,0,1,2.274-2.442,5.829,5.829,0,0,1,3.144-.906,5.614,5.614,0,0,1,2.322.492,7.044,7.044,0,0,1,2.13,1.548V-.682h-2.436V-2.866h4.9V13.007Zm-8.795.216a3.675,3.675,0,0,0,2.076-.612,4.277,4.277,0,0,0,1.452-1.632,4.682,4.682,0,0,0,.528-2.184,4.426,4.426,0,0,0-.528-2.148,3.976,3.976,0,0,0-3.575-2.1,3.54,3.54,0,0,0-2.034.606,4.261,4.261,0,0,0-1.41,1.608,4.611,4.611,0,0,0-.516,2.142,4.594,4.594,0,0,0,.528,2.208,4.01,4.01,0,0,0,1.44,1.548A3.8,3.8,0,0,0,247.19,13.223ZM270.538,9.54h-10.57a4.422,4.422,0,0,0,1.4,2.862,4.168,4.168,0,0,0,2.88,1.05,5.252,5.252,0,0,0,2.316-.516,4.508,4.508,0,0,0,1.788-1.584l2.184.984a6.649,6.649,0,0,1-2.706,2.43,8.149,8.149,0,0,1-3.641.822,7.529,7.529,0,0,1-3.623-.852,6.158,6.158,0,0,1-2.466-2.376,6.725,6.725,0,0,1-.882-3.431,6.773,6.773,0,0,1,.87-3.419,6.249,6.249,0,0,1,2.382-2.382,7.1,7.1,0,0,1,6.809.024,6.164,6.164,0,0,1,2.334,2.52A8.917,8.917,0,0,1,270.538,9.54Zm-6.683-5.207a3.58,3.58,0,0,0-2.46.942,4.329,4.329,0,0,0-1.356,2.49h7.895a4.395,4.395,0,0,0-1.476-2.49A3.943,3.943,0,0,0,263.855,4.333Z" transform="translate(-10.925 84.268)" fill="#0a3e59"></path></g></svg>