<svg xmlns="http://www.w3.org/2000/svg" xmlns:xlink="http://www.w3.org/1999/xlink" width="281.562" height="231" viewBox="0 0 281.562 231"><defs><clipPath id="a"><rect width="281.562" height="107.196" fill="#1da8de"></rect></clipPath></defs><g transform="translate(-726.954 -9929)"><circle cx="98.5" cy="98.5" r="98.5" transform="translate(770 9929)" fill="#e3f6ff"></circle><path d="M1287.5,659a128.549,128.549,0,0,1-25.845-2.619,127.3,127.3,0,0,1-45.872-19.4,129.475,129.475,0,0,1-54.1-80.97A131.268,131.268,0,0,1,1159,530h257a131.258,131.258,0,0,1-2.685,26.01,129.245,129.245,0,0,1-75.892,92.858,127.17,127.17,0,0,1-24.077,7.513A128.549,128.549,0,0,1,1287.5,659Z" transform="translate(-419 9501)" fill="#0a3e59"></path><g transform="translate(726.954 9972)"><g clip-path="url('#a')"><path d="M498.2.652l.582-.515c.077-.067.123-.049.133.053.038.309.06.473.067.5.091.326.2.344.312.046a1.816,1.816,0,0,0,.091-.568A.154.154,0,0,1,499.558,0h.487c.137,0,.189.067.151.2a1.69,1.69,0,0,0-.091.487c.021.228.087.256.2.088l.445-.663c.046-.067.095-.067.147-.007l.06.07a.042.042,0,0,1,.014.039,1.487,1.487,0,0,0,.046.631c.042.137.126.168.249.091a7.987,7.987,0,0,1,1.616-.67c.351-.116.407-.032.172.252a3.349,3.349,0,0,0-.365.5q-.321.594.295.315a3.224,3.224,0,0,1,.848-.217.519.519,0,0,1,.477.14q.132.132-.021.21a.683.683,0,0,1-.088.032.09.09,0,0,0-.07.105c.025.14.07.221.137.239a2.889,2.889,0,0,0,1.15.067.415.415,0,0,1,.186.014c.14.046.154.119.042.214l-.14.126a.45.45,0,0,0,.224.782l.813.14a.223.223,0,0,1,.21.263c-.032.473.214.771.743.9.137.032.158.1.063.207a.289.289,0,0,1-.179.088.26.26,0,0,0-.228.224.458.458,0,0,0,.245.456q.373.258-.063.2-.026-.005-.158-.042c-.091-.028-.14.007-.151.1a4.479,4.479,0,0,0,.074,1.458.264.264,0,0,1-.084.263l-.3.266a.3.3,0,0,0-.1.2,3.462,3.462,0,0,1-.372,1.216.215.215,0,0,0,.067.3c.859.645.512,1.585.5,2.349a2.924,2.924,0,0,1-1.388,2.531.407.407,0,0,0-.182.28,27.718,27.718,0,0,0-.47,4.165.219.219,0,0,0,.154.217,2.838,2.838,0,0,1,1,.578,3.776,3.776,0,0,1,.572.855,1.8,1.8,0,0,0,1.143.876q1.152.316,1.178.326,2.934,1.2,6.437,2.423c2.419.841,2.542,2.948,3.068,5.185a48.122,48.122,0,0,1,1.087,7.3q.442,5.727.662,8.7a.89.89,0,0,0,.224.526c.5.554,1.013,1.318.442,2.114a.646.646,0,0,0-.119.315,2.642,2.642,0,0,1-.126.775,9.422,9.422,0,0,0-.733,3.2.6.6,0,0,1-.112.315,3.961,3.961,0,0,1-1.15.8.95.95,0,0,0-.47.663,4.572,4.572,0,0,1-.221.743,26.652,26.652,0,0,1-1.764,3.183.188.188,0,0,0,.018.273A7.531,7.531,0,0,0,517.273,59q3.592,2.44,3.758,2.549c1.788,1.132,2.174,2.955,2.082,5.048q-.179,4.17-.69,7.713c-.5,3.432-2.146,8.789-2.847,12.316q-.841,4.244-1.339,9a.255.255,0,0,1-.256.228,24.142,24.142,0,0,1-3.19-.287.681.681,0,0,0-.319.028.472.472,0,0,0-.263.7,36.412,36.412,0,0,1,1.861,3.492,6.215,6.215,0,0,0,2.475,2.587,9.4,9.4,0,0,1,2.282,1.465,3.937,3.937,0,0,1,.287,2.342.383.383,0,0,1-.179.273,4.347,4.347,0,0,1-1.665.547,13.976,13.976,0,0,1-5.991-.284c-1.069-.3-1.083-1.059-1.283-1.872a.218.218,0,0,0-.256-.186,5.475,5.475,0,0,1-3.509-.463c-.649-.389-.649-.954-.607-1.665a30.938,30.938,0,0,1,.789-5.4,7.27,7.27,0,0,1,1.08-2.356q.5-.868-.224-1.325a.267.267,0,0,1-.133-.27,12.658,12.658,0,0,1,.21-1.6,40.032,40.032,0,0,0,1.108-5,66.442,66.442,0,0,1,.733-7.453q.857-3.881,1.981-8.2a.343.343,0,0,0-.347-.431,5.833,5.833,0,0,0-1,.147q-5.29,1.2-5.977,1.325a33.615,33.615,0,0,1-14.076-.295,19.443,19.443,0,0,0-3.755-.6,16.218,16.218,0,0,0-3.783.382.287.287,0,0,0-.214.361,58.2,58.2,0,0,1,1.928,9.073c.259,1.984.189,5.2.582,7.516q.258,1.514.631,3.267a7.173,7.173,0,0,1,.137,1.648.438.438,0,0,1-.158.333l-.158.14a.8.8,0,0,0-.091,1.115,4.916,4.916,0,0,1,1,1.991,30.066,30.066,0,0,1,.666,5.662c.028.694.007,1.139-.652,1.469a4.708,4.708,0,0,1-3.492.277.35.35,0,0,0-.442.347c.042,1.213-.814,1.686-1.827,1.988a12.586,12.586,0,0,1-5.325.217,4.783,4.783,0,0,1-1.806-.48.429.429,0,0,1-.179-.312,5.286,5.286,0,0,1,.088-2.037c.249-.831,1.532-1.36,2.461-1.837,1.637-.845,2.268-1.9,3.387-3.839.442-.771,1.038-1.578,1.458-2.2a.316.316,0,0,0-.26-.494h-3.018a.3.3,0,0,1-.291-.277,63.358,63.358,0,0,0-1.592-11.033c-.89-3.73-1.854-6.913-2.268-9.907a58.722,58.722,0,0,1-.557-8.2c.007-1.371.315-3.261,1.43-4.144a18.376,18.376,0,0,1,4.263-2.317q1.983-.826,6.353-2.405c.137-.049.158-.13.063-.238l-4.484-5.115a.6.6,0,0,1-.151-.4V49.986a.259.259,0,0,0-.168-.256q-.684-.289-.824-1.578a1.336,1.336,0,0,1,.754-1.553.269.269,0,0,0,.175-.256q.089-2.724.736-10.251a48.36,48.36,0,0,1,1.118-6.563,11.683,11.683,0,0,1,1-3.036,3.3,3.3,0,0,1,1.483-1.059q4.207-1.919,5.8-2.713a15.6,15.6,0,0,0,2.622-1.756.959.959,0,0,1,.926-.186.469.469,0,0,0,.561-.242c.642-1.318.284-3.345-.07-4.81a2.115,2.115,0,0,0-.484-.933c-.312-.333-.845-.656-1.027-1.052a7.332,7.332,0,0,1-.7-3.05.332.332,0,0,1,.119-.26l.354-.312a.32.32,0,0,0,.109-.284,1.489,1.489,0,0,0-.6-1.1.326.326,0,0,1-.151-.284V7.04c0-.116-.052-.154-.161-.123a1.192,1.192,0,0,0-.456.28c-.052.053-.095.042-.119-.028l-.042-.116a.1.1,0,0,1,.021-.116l.659-.712c.126-.137.095-.207-.091-.207h-.88c-.1,0-.119-.035-.049-.109l.873-.894a.56.56,0,0,0,.067-.666,2.326,2.326,0,0,0-.582-.642.266.266,0,0,1-.1-.291c.031-.13.151-.239.35-.333a.21.21,0,0,1,.231.042.719.719,0,0,0,.712.27c.158-.053.165-.119.021-.207a.227.227,0,0,1-.109-.161.135.135,0,0,1,.168-.158.97.97,0,0,1,.48.322.294.294,0,0,0,.435.018,2.126,2.126,0,0,0,.333-2.079.064.064,0,0,1,.095-.07l.368.21c.179.1.266.053.266-.154V.445c0-.13.056-.161.165-.1l1.066.617c.13.074.207.039.238-.105a1.451,1.451,0,0,1,.158-.452q.347-.563.515.105l.028.109c.018.063.049.074.1.032" transform="translate(-355.039)" fill="#1da8de"></path><path d="M757.22,80.3c.326,4.456-.554,8.239-1.441,13.168a16.714,16.714,0,0,0,.011,6.135l.831,4.133a8.482,8.482,0,0,1-.024,2.777,2.6,2.6,0,0,0,.011.877c.077.371.14.659.193.862q.757,2.913.845,3.341c.14.662.1,1.676-.68,2.04a6.921,6.921,0,0,1-6.174-.217,1.223,1.223,0,0,1-.663-1.451q.6-3.082.943-4.561a10.5,10.5,0,0,0,.3-2.019c.021-.978.421-1.714.358-2.735a20.556,20.556,0,0,0-.621-4.656q-1.467-4.1-2.352-7.211c-.165-.572-.354-.582-.575-.032q-.668,1.646-1.42,3.52a15.621,15.621,0,0,0-1.02,3.625,34.7,34.7,0,0,0-.228,4.459,3.153,3.153,0,0,1-.337,1.385,22.032,22.032,0,0,0-1.8,5.6,2.531,2.531,0,0,1-1.767,2.012,4.68,4.68,0,0,1-2.268-.189,24.091,24.091,0,0,1-4.684-1.774,1.722,1.722,0,0,1-1.013-2.275,3.987,3.987,0,0,1,1.143-1.073,12.3,12.3,0,0,0,3.909-4.708q2.135-4.454,2.149-4.484a13.7,13.7,0,0,0,1.574-4.063,18.955,18.955,0,0,0,.329-4.41q-.226-3.655-.3-5.434a13.729,13.729,0,0,1,.14-2.685.33.33,0,0,0-.277-.379,28.164,28.164,0,0,1-5.96-1.627.284.284,0,0,1,.007-.529l1.788-.656a.194.194,0,0,0,.091-.3c-1.476-2.012-2.517-3.888-1.967-6.433a31.358,31.358,0,0,1,3.814-8.856.312.312,0,0,0-.154-.445q-1.877-.752-3.376-1.518c-1.336-.684-2.619-1.613-2.612-3.218q.005-.373.351-2.619.957-6.168,2.251-14.724c.1-.663.28-1.609.543-2.843a4.324,4.324,0,0,1,1.876-2.84,8.621,8.621,0,0,1,2.4-.736.288.288,0,0,0,.214-.217q.174-.678,3-11.166c1.185-4.386,2.945-9.332,8.144-9.013,2.507.151,4.032,1.82,5,3.965a39.675,39.675,0,0,1,1.991,5.515q.931,3.308,2.405,8.982a2.375,2.375,0,0,0,.764,1.2.519.519,0,0,0,.312.13,12.2,12.2,0,0,1,1.788.21c1.308.277,1.813,1.528,2.089,2.843a56.847,56.847,0,0,1,.954,6.433q.7,7.415,1.034,13.48c.182,3.218-2.794,3.905-5.084,4.978a.263.263,0,0,0-.13.421,38.211,38.211,0,0,1,3.895,8.807,7.252,7.252,0,0,1-1.967,7.52.248.248,0,0,0,.1.41l1.76.61a.281.281,0,0,1,.095.477,3.013,3.013,0,0,1-1.192.659,33.976,33.976,0,0,1-9.133,1.325c-.137,0-.2.07-.186.2" transform="translate(-564.588 -9.326)" fill="#1da8de"></path><path d="M34.493,24.565a.266.266,0,0,0,.365.249.961.961,0,0,1,.642-.091.233.233,0,0,1,.175.263,11.46,11.46,0,0,1-.55,2.745c-.326,1-.351,1.536-1.4,1.665a.525.525,0,0,0-.456.435l-.449,2.637a.35.35,0,0,0,.165.358,6.7,6.7,0,0,1,2.345,2.384.936.936,0,0,0,.259.295,1.672,1.672,0,0,0,.365.2q6.405,2.451,6.808,2.615a3.8,3.8,0,0,1,2.314,2.857q.8,3.455,1.728,9.056c.179,1.083.407,2.2.691,3.351a.255.255,0,0,1-.175.305l-1.146.344a.287.287,0,0,0-.2.238q-.731,5.659-1,7.362a9.071,9.071,0,0,1-2.738,5.687c-.564.533-.992.946-1.29,1.241-.249.249-.217.456.091.624q3.2,1.746,5.672,3.317a22.355,22.355,0,0,1,3.566,2.556c1.879,2.068,1.686,4.933.9,7.516a56.3,56.3,0,0,1-2.1,5.714q-.589,1.367-3.033,6.931a67.179,67.179,0,0,0-3.867,11.443.64.64,0,0,1-.813.463c-.635-.2-1.4-.438-2.286-.722a.535.535,0,0,0-.487.052.4.4,0,0,0-.119.526,21.963,21.963,0,0,0,4.018,4.943,4.188,4.188,0,0,0,2.742,1.052,2.581,2.581,0,0,1,1.1.361,3.908,3.908,0,0,1,1.224,3.05.259.259,0,0,1-.151.259,7.673,7.673,0,0,1-2.892.729,30.445,30.445,0,0,1-5,0,4.607,4.607,0,0,1-2.436-.9c-.27-.2-.628-.47-1.069-.8a.435.435,0,0,0-.333-.084c-.421.063-.68.326-1.188.347a7.043,7.043,0,0,1-3.948-.884,1.023,1.023,0,0,1-.371-.933,21.625,21.625,0,0,1,.322-2.619c.144-.652.684-1.29.74-1.918a12.894,12.894,0,0,1,.484-2.99,9.929,9.929,0,0,1,1.718-2.044.15.15,0,0,0-.042-.242,2.545,2.545,0,0,1-.926-.715.276.276,0,0,1-.024-.308,30.81,30.81,0,0,0,2.363-4.495q1.835-6.51,2.023-7.089a42.689,42.689,0,0,1,3.271-7.615.309.309,0,0,0-.214-.452,8.976,8.976,0,0,0-3.383-.056q-2.345.437-5.15.947a33.445,33.445,0,0,1-11.24.067q-.684-.11-5.048-.848a9.53,9.53,0,0,0-3.45-.032.147.147,0,0,0-.1.2q1.041,2.293,2.195,5.6a78.578,78.578,0,0,1,2.138,8.2,13.4,13.4,0,0,0,.95,2.91q.473.92,1.458,2.651a.531.531,0,0,1-.172.708l-.936.607a.191.191,0,0,0-.049.323,17.145,17.145,0,0,1,1.153,1.535,3.8,3.8,0,0,1,.533,1.693,7.086,7.086,0,0,0,.54,2.766,8.109,8.109,0,0,1,.473,2.962,5.053,5.053,0,0,1-.035,1.09.4.4,0,0,1-.207.26,9.88,9.88,0,0,1-3.79.852c-.494.056-.975-.533-1.532-.466a1.246,1.246,0,0,0-.771.34,4.848,4.848,0,0,1-3.218,1.413,19.073,19.073,0,0,1-7.18-.526.722.722,0,0,1-.554-.947,4.329,4.329,0,0,1,1.1-2.415c.782-.729,1.995-.635,2.934-.961a4.969,4.969,0,0,0,2.226-1.707,26.2,26.2,0,0,1,2.678-2.906.81.81,0,0,0,.284-.729c-.049-.414-.274-.561-.67-.442l-1.609.477a.294.294,0,0,1-.322-.088,2.237,2.237,0,0,1-.551-.911,104.114,104.114,0,0,0-4.7-14.013Q2.432,88.937,2.1,88.013c-1.462-3.99-4.074-10.5.41-13.676a89.456,89.456,0,0,1,8.8-5.42.23.23,0,0,0,.063-.354c-.41-.473-.8-.887-1.164-1.245C8.29,65.45,8.087,63.353,7.831,60.377q-.274-3.166-.3-6.633a.477.477,0,0,0-.393-.463l-.757-.13a.159.159,0,0,1-.144-.217q1.977-8.393,2.5-10.139a19.341,19.341,0,0,1,1.381-3.706c.589-1.027,1.63-1.29,3.046-1.753q5.2-1.7,6.128-1.977a1.789,1.789,0,0,0,.894-.54,8.228,8.228,0,0,1,1.613-1.869,6.183,6.183,0,0,1,1.2-.589.3.3,0,0,0,.2-.28v-2.9a.525.525,0,0,0-.386-.5A1.892,1.892,0,0,1,21.4,27.155a13.483,13.483,0,0,1-.372-2.738.334.334,0,0,1,.389-.34l.631.109c.21.035.319-.053.322-.266.042-1.851.147-4.253,1.22-5.648A6.552,6.552,0,0,1,32.4,17.3a4.894,4.894,0,0,1,2.037,3.688q.079,1.236.052,3.579" transform="translate(27 -12.343)" fill="#1da8de"></path><path d="M1001.617,69.542a.067.067,0,0,0-.088-.056l-.133.025a.131.131,0,0,0-.105.151l.519,2.822a.265.265,0,0,1-.3.312,1.193,1.193,0,0,0-.417,0,.2.2,0,0,0-.189.235q.547,9.455,1.069,13.785.841,6.947,1.185,9.61a.166.166,0,0,1-.154.21l-3.73.687a.386.386,0,0,0-.312.449l.533,2.9a.747.747,0,0,0,.326.484,18.736,18.736,0,0,1,3.408,2.784,14.171,14.171,0,0,0,2.549,1.812,5.729,5.729,0,0,0,1.813.663c1.7.351,3.334.484,3.4,2.517.017.512-.025.884-.554,1.1a14.737,14.737,0,0,1-5.756.656,6.858,6.858,0,0,1-2.913-.634c-1.262-.719-2.061-1.167-2.4-1.353a.444.444,0,0,0-.6.168l-.266.459a.309.309,0,0,1-.263.161c-1.1.06-5.921.28-6.317-1a2.378,2.378,0,0,1-.024-.883,46.526,46.526,0,0,1,1.045-6.048,13.406,13.406,0,0,0,.014-4.123q-.71-6.836-1.613-13.925a8.9,8.9,0,0,1,.081-2.836.635.635,0,0,0-.028-.333c-.284-.789-1-1.735-.417-2.745q.031-.058.887-1.2a.374.374,0,0,0,.06-.347l-.47-1.574a.311.311,0,0,0-.4-.2,8.921,8.921,0,0,1-2.5.508c-.242.018-1.406.067-3.485.154a39.94,39.94,0,0,0-5.287.74c-4.649.782-8.193,1.381-12.043,1.188a45.543,45.543,0,0,1-8.056-1.143.24.24,0,0,0-.284.3,24.767,24.767,0,0,1,.992,7.741,114.1,114.1,0,0,0,.249,11.671,1.818,1.818,0,0,1-.2,1.111.415.415,0,0,0-.056.309q.363,1.94.456,2.251a38.4,38.4,0,0,1,1.157,4.288,9.715,9.715,0,0,1-.715,2.7c-.358,1.634.673,2.892.54,4.55a1.076,1.076,0,0,1-.761.863c-2.093.708-5.637,1.045-7.594-.28-.572-.389-.35-1.532-.214-2.153a4.652,4.652,0,0,1,.5-1.238,14.411,14.411,0,0,0,1.855-3.877,20.51,20.51,0,0,0,.186-6.184.3.3,0,0,0-.295-.267h-2.58a.241.241,0,0,1-.242-.238,112.974,112.974,0,0,0-1.564-16.744,53.868,53.868,0,0,1-.466-6.654.28.28,0,0,0-.207-.284l-.319-.109a.364.364,0,0,1-.231-.238,3.828,3.828,0,0,1-.179-1.451.27.27,0,0,0-.144-.266l-.224-.13a.188.188,0,0,1-.07-.308l.7-.989a.162.162,0,0,0-.045-.256l-.6-.424a.224.224,0,0,1-.063-.354l.7-.992a.194.194,0,0,0-.007-.231.9.9,0,0,0-.259-.228.336.336,0,0,1-.179-.308V65.987a.349.349,0,0,1,.126-.274,1.845,1.845,0,0,0,.673-.813,5.407,5.407,0,0,1,2.012-2.545.184.184,0,0,0,.021-.287q-1.678-1.546-3.187-3.089a5.332,5.332,0,0,1-1.469-4.652q.92-7.12,1.164-8.586a.464.464,0,0,0-.4-.592.871.871,0,0,1-.6-.424.348.348,0,0,1-.014-.326,19.808,19.808,0,0,0,1.255-3.965c.361-1.721.547-2.591.55-2.608q.784-3,1.273-4.305a4.436,4.436,0,0,1,.88-1.416,3.666,3.666,0,0,1,1.427-.736q5.322-1.82,7.5-2.335a1.75,1.75,0,0,0,.985-.564c.621-.747.7-1.9,1.949-1.956a.176.176,0,0,0,.165-.2l-.649-3.534a.355.355,0,0,0-.375-.287c-1.164.084-1.325-1.539-1.479-2.647q-.168-1.2.568-1.5a.2.2,0,0,0,.13-.252,17.976,17.976,0,0,1-.291-1.925.747.747,0,0,0-.627-.687.258.258,0,0,1-.161-.382l1.609-2.787a.2.2,0,0,0-.014-.238.277.277,0,0,1-.056-.151.179.179,0,0,1,.182-.214,1.561,1.561,0,0,0,.673-.221c.119-.073.133-.154.046-.235l-.179-.161c-.147-.137-.13-.207.056-.217a.845.845,0,0,1,.456.084.513.513,0,0,0,.547-.01,11.357,11.357,0,0,0,1.97-1.49.264.264,0,0,1,.379-.025q.521.384.873.063a.429.429,0,0,1,.133-.084,4.355,4.355,0,0,1,2.075-.245.246.246,0,0,1,.228.2.253.253,0,0,0,.284.221,1.173,1.173,0,0,0,.35-.046c.529-.214.863-.032,1,.543a.451.451,0,0,0,.747.21.173.173,0,0,1,.147-.035.181.181,0,0,1,.172.179c.031.34.256.47.677.386a1.184,1.184,0,0,1,.512-.021c.14.042.154.109.046.2-.228.2-.34.371-.34.522a.184.184,0,0,0,.214.21c.389-.011.557.126.5.414a.276.276,0,0,0,.13.295.957.957,0,0,1,.459.7.406.406,0,0,0,.168.27l.3.21a.157.157,0,0,1,.042.245l-.239.34a.422.422,0,0,0-.07.347,1.283,1.283,0,0,1-.263,1.132.508.508,0,0,0-.112.322,7.186,7.186,0,0,1-.336,2.374.189.189,0,0,0,.095.242l.6.347a.318.318,0,0,1,.172.277,5.626,5.626,0,0,1-.715,3.113.334.334,0,0,1-.312.186h-.361a.263.263,0,0,0-.259.217,14.408,14.408,0,0,1-1.174,3.614.307.307,0,0,0,.165.417,2.191,2.191,0,0,1,1.374,2.293.416.416,0,0,0,.123.3,2.673,2.673,0,0,0,.694.473,39.571,39.571,0,0,0,6.5,2.433,2.5,2.5,0,0,1,1.336.95,22.251,22.251,0,0,1,2.114,4.866q.994,2.834,2.142,5.827a.192.192,0,0,1-.081.256l-.365.239a.234.234,0,0,0-.112.284,16.854,16.854,0,0,0,3.008,6.563,10.783,10.783,0,0,1,1.143,1.56,56.157,56.157,0,0,1,2.128,5.4,13.356,13.356,0,0,0,1.476,2.994,2.03,2.03,0,0,0,1.349.985q1.32.231,2.1.389a.369.369,0,0,1,.252.172l.231.354a.347.347,0,0,0,.28.158,2.312,2.312,0,0,1,1.427.344,8,8,0,0,1,2.822,6.272c0,.561-.2.652-.582.277a1.614,1.614,0,0,1-.256-.642" transform="translate(-739.426 -7.029)" fill="#1da8de"></path><path d="M276.809,34.316a.508.508,0,0,1-.091-.112.426.426,0,0,1-.049-.2c.007-.578-.2-1.515.14-2.009a5.787,5.787,0,0,0,1.448-2.833c.337-3.709,1.343-7.685,3.716-10.521a5.432,5.432,0,0,1,2.419-1.539q5.106-1.793,7.962,2.615a22.845,22.845,0,0,1,1.868,3.821q1.01,2.514,1.637,4.544c.273.884.918,1.75,1.22,2.591a2.7,2.7,0,0,1-.4,2.724,1.386,1.386,0,0,0-.34.67,1.644,1.644,0,0,0,.175.778q.384.815.9,2.023c.06.14.259.147.263.011a.164.164,0,0,1,.035-.095.111.111,0,0,1,.2,0l.491.561a.377.377,0,0,0,.295.133h1.525a.842.842,0,0,1,.677.34,7.283,7.283,0,0,1,1.01,2,31.362,31.362,0,0,1,1.206,4.568A133.716,133.716,0,0,1,304.831,58.5a3.168,3.168,0,0,1-.87,2.538,15.318,15.318,0,0,1-4.621,2.906.336.336,0,0,0-.137.477,32.617,32.617,0,0,1,3.73,8.516,7.032,7.032,0,0,1-1.669,7,.385.385,0,0,0,.158.624l1.5.522q.51.174.052.463a9.3,9.3,0,0,1-2.429,1.059,48.121,48.121,0,0,1-5.21,1.181.287.287,0,0,0-.239.305c.084,1.083.217,3.278.929,4.182.827,1.048,1.648,2.114,2.247,3.05a36.886,36.886,0,0,0,3.9,5.266,16.382,16.382,0,0,0,2.289,1.676,2.121,2.121,0,0,1,.827.824.976.976,0,0,1-.467,1.28,15.275,15.275,0,0,1-5.385,2.493,2.652,2.652,0,0,1-2.061-.323,3.035,3.035,0,0,1-.957-1.613,50.3,50.3,0,0,0-2.293-5.585c-.424-.9-.252-1.9-.641-2.773a28.251,28.251,0,0,0-3.38-5.785c-.267-.347-.428-.3-.487.13-.428,3.215-1.382,5.4-3.145,8.785q-2.04,3.913-4.14,7.79a7.431,7.431,0,0,0-.67,2.1c0,.01-.038.7-.105,2.054a5.735,5.735,0,0,1-.308,1.634,3.148,3.148,0,0,0-.2,1.4q.147,1.288.294,4.088c.1,1.844-.964,2.6-2.713,3.029a5.544,5.544,0,0,1-4.256-.642q-1.6-.926-.642-2.766,1.488-2.861,1.536-2.966a5.931,5.931,0,0,0,.424-1.237q.268-1.173.652-3.828a4.489,4.489,0,0,1,.838-1.686,9.316,9.316,0,0,0,1.672-4.214c.533-3.5.466-7.282.666-10.23a23.192,23.192,0,0,1,1.21-6.037.294.294,0,0,0-.256-.389,38.081,38.081,0,0,1-6.4-1.017,14.608,14.608,0,0,1-2.657-.908q-.926-.437.053-.726l1.434-.428a.3.3,0,0,0,.143-.48c-1.6-1.928-2.612-3.755-2.131-6.405a34.1,34.1,0,0,1,3.618-9.22.245.245,0,0,0-.126-.34c-1.89-.747-5.9-2.349-5.837-4.722a105.078,105.078,0,0,1,1.286-12.53,49.856,49.856,0,0,1,1.276-5.834,12.9,12.9,0,0,1,1.161-3.05c.782-1.29,1.872-1.227,3.162-1.322a.52.52,0,0,0,.277-.109,3.16,3.16,0,0,0,1.178-2.128.27.27,0,0,0-.1-.266" transform="translate(-186.728 -12.762)" fill="#1da8de"></path></g></g></g></svg>