<svg xmlns="http://www.w3.org/2000/svg" width="1103.538" height="311.522" viewBox="0 0 1103.538 311.522"><g transform="translate(-54.473 -57.851)"><path d="M1351.273,628.275H1193v-70h160.332l1.152.076c7.457.367,26.235-1.523,34.949-9.815,1.66-1.58,6.073-5.779,6.073-18.5V431.581c-.514-9.21-.147-37.313,20.47-59.932,10.578-11.605,30.219-25.44,63.718-25.44,36.454,0,356.427,2.128,543.915,3.4l158.918,1.085V324.862a8,8,0,0,1,12-6.926l98.011,56.638a8,8,0,0,1,0,13.853l-98.011,56.638a8,8,0,0,1-12-6.927V420.691L2023.136,419.6c-187.4-1.268-507.194-3.395-543.442-3.395-6.645,0-10.807,1.3-11.984,2.595-1.928,2.115-2.384,8.042-2.354,8.358l.149,102.875c0,35.682-15.414,57.6-28.345,69.708-27.6,25.839-65.912,28.628-81.152,28.628C1354.006,628.373,1352.4,628.325,1351.273,628.275Z" transform="translate(-1138.528 -259)" fill="#fff"></path><text transform="translate(400 109)" fill="#0a3e59" font-size="43" font-family="Rockwell-Regular, Rockwell"><tspan x="0" y="29">Celebrating a Decade</tspan></text></g></svg>