<svg xmlns="http://www.w3.org/2000/svg" width="110.153" height="157.16" viewBox="0 0 110.153 157.16">
  <g id="icon-ri" transform="translate(-815.261 -6471.643)">
    <path id="icon-rhode-island" d="M63.146,143.127l1.4,2.806v1.4l-.7,2.1-2.105.7-.7,1.4v2.806l1.4,2.105,2.105.7,3.509-1.4,2.105-1.4.7-1.4-.7-1.4-1.4-1.4-1.4-1.4-.7-2.1V144.53l-.7-.7-1.4-.7ZM74.371,75.774l-.7,6.315.7,3.507,1.4.7V89.1l-.7.7.7,1.4.7,4.209v1.4l.7-.7,1.4-1.4.7-1.4V86.3l-.7-4.209-.7-3.509-.7-1.4-.7-.7-.7-.7ZM89.806,57.532,87,61.039l-1.4,1.4v2.105l.7,4.912v2.806l-.7.7-2.105,1.4v.7l.7,2.808.7,1.4-.7.7-.7,2.105v2.1l1.4,1.4L87,87.7l-1.4,1.4L82.088,91.91l-.7,1.4,1.4,2.105,1.4.7.7-1.4,1.4-2.105h2.808l1.4-3.509L92.614,86.3h4.207l-.7-2.105-.7-1.4v-1.4l-.7-2.105-2.806-13.33V59.636l-1.4-3.507Zm3.509-4.912v5.612l.7,3.509.7,4.209,2.808,7.718,2.8,5.612v3.509l.7,1.4,2.808,4.209,6.315-10.522-4.912-14.034-2.1-2.1V58.233l-.7-5.612ZM52.621,0,46.306,2.1,34.379,4.912,23.153,8.42,11.226,11.927,0,14.733,2.808,25.259l2.1,9.821L7.718,44.9l2.806,9.821L13.33,65.25l2.808,9.821,2.1,9.821,2.808,9.825,1.4,5.612,1.4,7.017,2.105,9.821H23.153l-2.806,2.808.7,2.1,1.4.7.7,3.509.7,2.808,1.4,1.4-2.808,4.211v1.4l-2.1.7.7,1.4,4.209-2.105L36.483,131.2l19.646-13.33,5.612-2.105h2.105l2.806.7h1.4l1.4-.7v-4.912l3.509-14.733-.7-2.808-2.105-9.121-1.4-2.8L65.951,78.58V76.474l1.4-2.1.7-3.509-.7-3.509-1.4-3.509-2.1-2.1-3.509-.7.7-1.4,1.4-1.4,1.4-1.4h2.806l.7,1.4,1.4,1.4v-2.1l1.4-4.211-.7-1.4-.7-2.105-4.211-2.1-.7-2.806-1.4-4.211-.7-3.509-.7-2.8,2.806,2.1,1.4,2.105,1.4,2.1.7,2.808,2.1,2.1,2.808,2.105,2.8.7h1.4v-1.4l-.7-4.211.7-.7h.7l1.4.7.7,1.4-.7,4.209v9.123l1.4,1.4,2.1-.7,2.105-1.4L87,53.321v-.7l-.7-2.105V48.41L87,46.3l-5.612-4.91L70.864,38.588v-1.4l-2.105-.7v-.7l-2.1-4.211.7-2.1-.7-1.4v-2.1l-.7-2.105-1.4-2.1V19.645l-.7-.7-4.912,2.107L55.429,7.718l-1.4-4.912Z" transform="translate(815.261 6471.643)" fill="#0a3e59"/>
    <text id="RI" transform="translate(836.338 6528.106)" fill="#fff" font-size="20" font-family="CenturyGothicPro, Century Gothic Pro"><tspan x="10.168" y="15">RI</tspan></text>
  </g>
</svg>
