<svg xmlns="http://www.w3.org/2000/svg" width="226.085" height="112.042" viewBox="0 0 226.085 112.042">
  <g id="icon-ne" transform="translate(1427.658 -6258.813)">
    <path id="Path_20590" data-name="Path 20590" d="M5.664,0,5.258,4.313,4.99,8.629l-.4,4.313-.27,4.314L3.91,21.569l-.4,4.316-.27,4.179-.406,4.314-.4,4.313-.268,4.316L1.751,47.32l-.268,4.314-.4,4.313-.4,4.314L.4,64.442,0,68.755l3.1.268,3.1.271,3.1.27,3.1.27,3.1.268,2.965.136,3.1.27,3.1.27,3.1.135,3.1.27,3.1.27,3.1.135,3.1.27,2.967.135,3.1.27,3.1.135,2.428.27-.136,2.158L51.5,76.846,51.366,79l-.135,2.157L51.1,83.318l-.136,2.157-.135,2.158-.138,2.157-.135,2.157-.135,2.158-.135,2.157-.135,2.16-.136,2.156-.136,2.158-.136,2.157-.135,2.157,5.529.27,5.526.4,5.515.268,5.393.27,5.53.27,5.526.4,5.529.27,5.528.135,5.528.27,5.53.27,5.526.268,5.529.136,5.528.27,5.393.135,5.528.135,5.529.136,5.529.27,5.526.135,5.529.135h5.528l5.528.136,5.53.135h5.526l5.529.136h11.055l5.529.135h21.977l5.528-.135-.674-.674-.4-.136-1.213-.27-.4-.4v-.538l.136-.81.268-.674v-.539l-.809-.81-.133-.538-.406-.539-.81-.944.4-.809.136-.4-.27-.406-.539-.135-.944-.135-.4-.136-.27-.538-.267-.4-.27-.4-.4-.4h-.539l-.539.135-.4-.135-.135-.4.27-.27.268-.27.136-.27v-.135l-.4-.944-.406-.674-.135-.27v-.942l-.135-.539-.539-.674-.135-.4-.136-.539.136-.4v-.4l-.4-.4-.674-.136-.539-.135-.27-.4-.135-.81.135-.944.135-.538v-.81l-.268-.674-.539-.4-1.348-.538-.27-.539-.135-.4-.136-.136-.135-.4v-.4l.135-.4.136-.135.27-.406.538-.809V84.4l-.27-.538V82.65l.27-.674.136-.539-.136-.944-.27-.809-.135-.539.135-.674V78.2L212.2,77.8l-.539-.4-.135-.27-.135-.4v-.27l.135-.135.135-.27-.135-.27-.135-.135v-.271h-.136V75.1l.136-.268.27-.944-.136-.539V72.268l-.135-.539.538-.268-.268-.27-1.213-.4-.27-.406-.135-.538.27-1.484.268-.135.539-.674.4-.674-.27-.27-.4-.135-1.213-.4-.406-.136.674-2.292v-.4l.136-1.348-.136-.4h-.4l-.944-.27-.4-.271-.135-.4v-.27l.135-.4.138-.4.133-.27-.133-.27-.407-.268-.268-.138-.136.138-.538.268-.406.136-.538-.4v-.81l.135-.674V56.9l-.27-.268-.268-.675V53.529l.135-.268.27-.406.135-.135v-.135L206,52.046l.135-.674.27-.539.135-.674-.27-.809-1.483-1.618-.135-.27-.4-.809-.136-.406v-.4l.27-.674.135-.27-.268-1.348-.944-.812-1.079-.673-.674-.942-.136-.812V38.967l-.27-.674-.538-.406-.81-.538-.4-.538-.27-.81.136-.674.27-.538.135-.675-.135-.809-.136-.538-.27-.539-.268-.27-.136-.538-.809-1.079.135-1.484.4-1.483-.4-1.484-.4-.27-.674-.268-1.079-.136-3.236-.538-.538-.4-.27-.406v-.674l-.27-.538-1.079-.81-.27-.4V20.9l.135-.27.136-.27.135-.27-.135-.27-.27-.136-.4-.135H188.2l-.27-.268-.135-.136-.136-.27-.135-.268-.27-.539-.4-.27-.4-.27-2.292-.268-.4-.138-.27-.268-.27-.268-.135-.136-.81-.135-.538-.271-.27-.135h-1.213l-.674-.268-.538-.27-.539-.406-.944-.809-.674-1.079-.538-.406-.406-.27-.674-.133-5.123.809h-.674l-1.753-.406-.539.136-1.079.406-.538.135-.27-.135-.539-.406h-.4l-.944.27-1.753-.539-.674.136-.27.135-.27.27-.27.27v.4l-.4.945-.135.133-.135.138-.539.4-.27.135-.674.135-.674-.135-1.753-.675-.4-.135v-.4l-.27-.4L151.4,12.408l-.944-1.079-1.079-.673-.136-.135h-.4l-2.7-1.887-.135-.135-.539-.674h-.27l-2.157-.138-4.314-.135-4.179-.135-4.314-.135-4.314-.135L121.6,7.012l-4.314-.136-4.313-.136-4.314-.133-4.314-.27L100.034,6.2l-4.179-.27-4.314-.138-4.314-.267-4.314-.136L78.6,5.122l-4.313-.268-4.314-.271-4.181-.27L61.477,4.18l-4.314-.27-4.314-.27-4.314-.406-4.316-.268L39.908,2.7l-4.182-.268-4.313-.27L27.1,1.753l-4.313-.268-4.316-.4L14.292.809,9.977.406Z" transform="translate(-1427.658 6258.813)" fill="#0a3e59"/>
    <text id="NE" transform="translate(-1325.662 6308.302)" fill="#fff" font-size="20" font-family="CenturyGothicPro, Century Gothic Pro"><tspan x="5.738" y="15">NE</tspan></text>
  </g>
</svg>
