<svg xmlns="http://www.w3.org/2000/svg" width="219.041" height="110.683" viewBox="0 0 219.041 110.683">
  <g id="icon-ky" transform="translate(1412.776 -6126.262)">
    <path id="Path_20589" data-name="Path 20589" d="M.145,108.653,0,109.957l.289.435.29.29,1.887-.145-.434-2.029-1.015-.435ZM131.423,0l-.289.29-.292.58-1.6,1.16-.435.435-.725,1.018.145,1.16.872.87.579.435.146.58-.146.725-.87,1.16-.292.435.438.29.434.292,1.306-.147.58.147v.579l-.292.725-.289.435-.145.725.579,1.3-.434.147h-2.322l-1.014.29-1.741,1.014L121.848,17.7l-1.16.435-.579-.29-1.16-1.015-.579-.145h-1.742l-3.335.725-.438.435v.58l.292.87.29.435.579,2.176.727,1.451v.725l-.438.58-1.3,1.3-.437.437-.289.725-.435.435-1.306.145-.582.29-.724,1.16L108.94,32.5,108.5,33.8l-1.015.87-.435.435-1.16.435h-.29l-.145-.29-.145-.145h-.437l-.434-.147-.29.147-.289.435-.438,1.6-.287.29-.437.435-.289.58-.292.87v.725l.145,3.626-.145,1.015-.145.29-.289.29-.29.289-.29.29-1.306.435-.725.29-.145.725-.29.29-.725-.435-1.162-1.16H94.58l-.58-.29-.435-.29-1.3-.579-.44-.29-.289-.58-.145-.58-.145-1.451-.29-.435-1.6-1.015-.58-.289H88.2l-.289.289.435.725.579.29.58.147.29.145-.435.725-1.162.58-.725.145H87.18l-.146-.435-.147-.147-.434-.145-.29.145-.145.29.145.435.579.437.145.435v.87l-.434.435-.58.292-.725.145-.29.289v.872l.29,2.321v.58l-.435.435-1.451.435-.145.58.145.727-.292.869-.579.435h-.579l-.437-.289.145-.725.145-.725-.579-.147-1.16.435-1.015-.145-1.014-.58-.727-.87-.289-1.015-.582-.579-1.013.435-1.015,1.015-.58.725-.437.145-1.594.435-.58.29-.292.29-.29.435-.287.58-.58,2.465-.437.872-.875.721-.289-.147-.29-.289-.435-.437-.292-.435v-.435l-.289-.289-.29-.147H65.421l-.289-.147L64.116,54.4l-2.029-.58-.58-.435-.579-.29-.727-.435-.724-.29-.582-.145-1.16.435-1.159.87-1.16.29-1.16-.87v-.29l-.147-.725-.147-.29h-.434l-.147.29-.145.435.145.872.724,1.014.148.725-.148,1.015-.724,1.015-.872.29-.579-.29-.145-.579.145-1.3-.145-.437-.292-.29-.579.145-.435.29-.145.292h-.292l-1.16.434-.579.145h-.579l-.582-.29-.58-.289-.437-.582-.577-.435h-.58l-.58.29-.145.87.145.435,1.16,2.032-1.3,1.739-.148.29-.437-.145L42.5,59.043l-.58-.145-.58.144-.148.435.148.727-.292.869-.434.582-1.451,1.594-.29.435-.292.872-.145.872.292.724.435,1.015.289.147.872.87.724,1.6-.145,1.015-.872.727-5.221,1.306-1.6,1.159-.579.145-1.3.142-.579.145-.438.292-.434.434-.29.58-.437,1.6V78.77l.437,1.306.724,1.162,1.017,1.16.579,1.159.147,1.16-.58,1.6-.725.869-1.163.29-1.159-.29-2.176-1.16-8.415-3.336-1.451-.145-1.306.289-1.16.58-1.014.87-.289.437-.87,2.031-.872,1.16-.579,1.16.147,1.015.577.872,1.16,1.16.148.579v3.193l-.148.29-.145.29-.289.435-.145.435.145.727.579,1.3.147.725-.147,1.015-1.014,2.755-.582,2.177-.577,1.014-.727.435L8.415,107.2l-.725-.58-.872-.872-.724-.579-.29.29-.148.145-.289.725-.289,1.306v.579l-.435,1.742-.148.434,5.225-.29,5.076-.435,5.077-.29,5.077-.435,5.222-.29,5.079-.435,5.077-.435,5.077-.434V105.17l-.145-.579-.582-1.887-.579-1.741-.145-.289v-.292h6.094l.29.145.145.145.29.437.144.289.145.147.147-.147,1.16-.145h.437l1.16-.145,1.741-.145,2.176-.147,2.756-.29,2.9-.29,3.19-.435,3.338-.29,3.335-.29,3.193-.435,2.9-.29,2.611-.289,2.322-.29,1.739-.147,1.16-.145h.29l1.306-.145,1.015-.29.289-.147h1.306l.872-.145,2.613-.145,3.915-.29,5.077-.29,5.947-.435,6.674-.435,7.251-.58,7.4-.58,7.4-.579,7.108-.58,6.815-.579,5.95-.58,5.077-.435,3.917-.29,2.463-.29,1.015-.145,1.306-.146,1.017-.289.87-.58,1.014-1.306.58-.289h.146l2.466-1.306,2.9-.725.289-.145.147-.147.292-.435,1.16-.725,2.9-1.451,2.9-.87.289-.147.145-.145v-.434l-.145-.289v-.293l.289-.435.292-.29.29-1.306.579-.725.145-.145h.145l1.306-.29,1.742-.87,1.6-1.015.434-.29.148-.145V75.14l.145-.29v-.725l-.145-.435v-.146l-.148-.579.148-.29.29-.435.577-.58,2.467-1.6.289-.29v-.145l.145-.147v-.725l-.145-.87-.145-.435v-.29l.145-.435.437-.58,1.306-1.16,2.9-2.031L206.71,61.5l1.887-1.3.724-.58,2.176-2.466,2.467-2.9,1.449-1.741,2.177-2.465,1.451-1.6-.582-.29h-.29l-.869.437h-.292l-2.466-.437-.435-.145-.144-.145v-.29l-.146-.147v-.286L213.673,47v-.145l-.292-.147-1.014-.725h-.438l-.145.147-.724-.725-.292-.29-.29-.145h-.144l-1.162-.29-.289-.147-.147-.145-.289-.58-.582-1.16V42.5l-.144-.29-.146-.29-.435-.435-2.176-1.6-.145-.145v-.29l-.147-.29-.29-1.16-.146-.29-.144-.145-.29-.435-.145-.147-.146-.145-1.3-.725-.147-.145-.146-.147V35.68l.292-.58.145-.145v-.147l-.145-.289-.148-.147-.145-.29-.145-.147-1.739-1.159-.29-.147-.148-.435-.289-.435-.145-.29-2.611-2.755-.145-.29-.146-.29v-.292h.146V27.7l.434-.435.292-.29V26.39l-.138-.567v-.147l.146-.145v-.145l.144-.147h.29l.147-.147v-.727l-.147-.435v-1.6l-.29-.435-.579-1.162-.145-.145V20.3l-.145-1.015v-.58l-.437-.435-.579-1.015-.437-.58-2.321-1.741-1.16-.579-1.451-.29-1.3-.58-1.015-1.3L186.692,9.86l-.145-.725-.146-.725-.145-.435-.437-.29-.724.29-1.6,1.16-.724.147-.579.29-.292.435-.434.579-.29.437-.727.435-.289.29v.289l-.29.725-.145.437-.437.435-.579.145-1.451-.145-.582.145-.434.29-.29.435-1.014.29H174.8l-.435-.435-.87-1.015-.29-.145-.292-.29-.869-.29H171.6l-1.013.145-.29-.145-.58-.29-.579-.435-.582-.145h-.724l-1.887,1.014-.289.29v.725l-.29.58-.435.579-.58.147h-1.306l-1.162-.725-2.174-1.741-.58-.435-.434-.725-.582-.435-1.159-.147-1.306-.435h-.725l-2.466.87h-.586l-3.335-.87L147.813,10l-.289-.58-.147-.87-.289-.725-.292-.58-.29-.579-.289-.437-.435-.289-.437-.29-.145-.58-.145-.579-.29-.725-.437-.58L143.9,2.9l-1.306-.579-.727-.147h-.579L141,1.883l-.435-.725-.438-.579L139.4.289l-1.16.435-2.321,1.451h-1.16L133.017.87l-.437-.29h-.144L132,0Z" transform="translate(-1412.776 6126.262)" fill="#0a3e59"/>
    <text id="KY" transform="translate(-1297.662 6177.302)" fill="#fff" font-size="20" font-family="CenturyGothicPro, Century Gothic Pro"><tspan x="6.668" y="15">KY</tspan></text>
  </g>
</svg>
