<svg xmlns="http://www.w3.org/2000/svg" xmlns:xlink="http://www.w3.org/1999/xlink" width="152.231" height="170.953" viewBox="0 0 152.231 170.953">
  <defs>
    <clipPath id="clip-path">
      <rect id="Rectangle_72" data-name="Rectangle 72" width="152.231" height="170.953" fill="#0a3e59"/>
    </clipPath>
  </defs>
  <g id="icon-nm" transform="translate(-649.966 -6028.13)">
    <g id="icon-new-mexico" transform="translate(649.966 6028.13)">
      <g id="Group_1494" data-name="Group 1494" clip-path="url(#clip-path)">
        <path id="Path_7151" data-name="Path 7151" d="M152.231,150.681l-.109-2.784,0-.037h-.005c0-.083,0-.228-.007-.494l-.338-12.5c0-.043-.345-11.034-.366-11.723l-.076-2.643,0-.022c0-.146-.008-.777-.04-3.5l-.006-.5c0-.008-.006-.68-.01-1.277,0-.479-.007-.911-.007-.919l-.023-1.228-.267-22.516c0-.037-.261-8.776-.27-9.077,0,0,0-.233,0-.242l-.013-.232-1.027-34.611-.124-4.546c0-.019-.043-1.474-.074-2.546L149.181,28.8s0,0-.034-.6l-.042-.728-.032-.911-.043-3.087c0-.012-.048-1.258-.049-1.27l0-.065-.006-.028c0-.192-.011-.631-.041-1.71l-.053-1.9c0-.018-.03-.9-.056-1.711l-.039-1.159.926-.051-.045-1.467c-.024-1.32-.026-1.432-.026-1.444l-.066-1.605-.05-1.647-.034-1.86c0-.052,0-.085,0-.106h0l-.154-5.121s0,0-.06-1.162L149.244.2,138.158.524l-12.9.359-4.207.1-1.616.07-.836.036-1.027.03-11.9.059-22.455.111H77.7l-.875.032-3.611.018H64.484l-7.1-.124L57.3,1.138l-1.649-.052H53.572l-3.7-.049h-.037v.007c-.1-.009-.275-.014-.635-.022L45.562.936h-2.48L42.014.883l-3.9-.048c-.006,0-.006,0-.419,0L34.816.8,34,.785h-.41l-.017,0c-.049,0-.123-.007-.233-.011L31.975.731H30.7L29.8.682h-1.07L28.44.673,27.714.629h-.753L5.792,0V.018H5.774L5.634,4.6l-.3,8.847L4.755,29.715c0,.007,0,.308,0,.308L4.4,40.314c0,.041-.3,9.285-.3,9.331,0,.012-.038,1.339-.041,1.434L3.96,53.867l-.015.126v.329l-.024.721-.028.215c0,.006-.021.629-.154,4.744L3.7,61.3l-.009.309v.023h0l-.011.581-.1,2.838c0,.005-.043.706-.044.715l-.2,6.345-.04,1.2-.016.1V73.8l-.052,1.529-.053.01.053,0-.179,5.254-.014,0,.014,0-.011.325-.012.108v.225L3,82.1c0,.007-.006.082-.011.156s-.01.144-.01.15v.3l-.029.861,0,.079c-.006.1-.016.27-.016.273l-.02.826-.145,4.273s0,.015,0,.037l-.063.011.063,0c-.023.616-.241,6.592-.241,6.611L2.473,97c0,.016-.146,4.817-.152,5.022l-.4,11.866-.006.042h0c0,.015,0,.032,0,.052l-.007.164v.039h0l-.332,9.784,0,.073c0,.077-.012.185-.012.192v.226l-.034,1-.058,1.168h-.01v.186l0,.095,0,.558-.095,2.782,0,.043c0,.032,0,.07,0,.074l-.14,4.228L1.1,137.461v.46l-.06,1.746-.022.4c-.01.191-.021.379-.021.385v.492h.006c-.012.131-.024.442-.055,1.279v.153l-.084,2.473c-.091,2.338-.113,2.911-.117,3.063l-.052,1.1c0,.013-.049,1.919-.049,1.927s0,0,0,.344l-.005.168s-.047.492-.047.508v.877l-.008.235c0,.013-.212,6.234-.382,11.233l-.2,5.885-.007.2,2.375.054.023,0c.042,0,.1,0,.192.007l19,.5.194,0,.306-13.487,42.474.71h.03l.105-.505-.238-.267-.093-.208-.136-.071-.043-.039-.177-.119-.148-.072-.33,0-.046.044-.108.007-.023,0-.041-.059s-.108-.161-.113-.166l-.17-.177h-.053l-.09-.091-.034.017v-.467l-.016,0v-.066l-.325,0-.436-.464v-.4l.042-.111-.051-.063-.059-.123-.139-.153-.018-.018-.03-.03-.01-.012.284-.246h0l.2-.176h.087l.1-.016v-.141l.262-.228h-.262v-.157h-.114l-.043-.047h-.052l.054-.105,0-.092.129-.258.076.022v-.175l.1-.2-.119-.034.13-.137-.2.1-.085-.08h-.014l.083-.082v-.037l.285.031-.241-.255.075-.15-.241-.027-.037-.039h-.3l.18-.219h.061l.155-.156H77.9l1.373.054h4.776c.012,0,.362-.033.566-.053H96.821l.337-.019,6.826-.079h1.168l.055-.013,11.354-.13.192,0,1.135-.007,2.529-.036,7.295-.084L152,150.72l.194,0v-.033Z" transform="translate(0 0.001)" fill="#0a3e59"/>
      </g>
    </g>
    <text id="NM" transform="translate(678.224 6098.106)" fill="#fff" font-size="20" font-family="CenturyGothicPro, Century Gothic Pro"><tspan x="34.41" y="15">NM</tspan></text>
  </g>
</svg>
