<svg xmlns="http://www.w3.org/2000/svg" width="15" height="20" viewBox="0 0 15 20"><path d="M2.5,18.625A.627.627,0,0,1,1.875,18V3A.627.627,0,0,1,2.5,2.375H8.75V5.5A1.249,1.249,0,0,0,10,6.75h3.125V18a.627.627,0,0,1-.625.625ZM2.5.5A2.5,2.5,0,0,0,0,3V18a2.5,2.5,0,0,0,2.5,2.5h10A2.5,2.5,0,0,0,15,18V6.535a2.5,2.5,0,0,0-.73-1.77L10.73,1.23A2.492,2.492,0,0,0,8.965.5Zm2.188,10a.938.938,0,0,0,0,1.875h5.625a.938.938,0,0,0,0-1.875Zm0,3.75a.938.938,0,0,0,0,1.875h5.625a.938.938,0,0,0,0-1.875Z" transform="translate(0 -0.5)" fill="#fff"/></svg>