<svg xmlns="http://www.w3.org/2000/svg" width="15" height="20" viewBox="0 0 15 20"><path d="M12.5,18.625A.627.627,0,0,0,13.125,18V6.75H10A1.249,1.249,0,0,1,8.75,5.5V2.375H2.5A.627.627,0,0,0,1.875,3V18a.627.627,0,0,0,.625.625ZM0,3A2.5,2.5,0,0,1,2.5.5H8.965a2.5,2.5,0,0,1,1.77.73L14.27,4.766A2.5,2.5,0,0,1,15,6.535V18a2.5,2.5,0,0,1-2.5,2.5H2.5A2.5,2.5,0,0,1,0,18ZM6.25,9.879a.553.553,0,0,1,.625.574V13a.627.627,0,0,0,.625.625H10a.549.549,0,0,1,.57.629c-.02.1-.039.2-.066.289A3.751,3.751,0,1,1,6.246,9.879Zm2.5-1.2a3.756,3.756,0,0,1,3.078,3.078.55.55,0,0,1-.574.621H8.75a.627.627,0,0,1-.625-.625V9.25A.554.554,0,0,1,8.746,8.676Z" transform="translate(0 -0.5)" fill="#fff"/></svg>