<svg xmlns="http://www.w3.org/2000/svg" width="20.001" height="20" viewBox="0 0 20.001 20"><path d="M3.07.7A.936.936,0,0,0,1.836.773L.273,2.336A.941.941,0,0,0,.191,3.57L3.316,7.633A.938.938,0,0,0,4.059,8H6.172l4.258,4.258a3.017,3.017,0,0,0,.559,3.5l4.375,4.375a1.252,1.252,0,0,0,1.77,0l2.5-2.5a1.252,1.252,0,0,0,0-1.77l-4.375-4.375a3.023,3.023,0,0,0-3.5-.559L7.5,6.672V4.559a.933.933,0,0,0-.367-.742L3.07.7ZM.906,15.219a3.094,3.094,0,1,0,4.375,4.375l4.035-4.035a4.286,4.286,0,0,1-.453-2.2L3.957,18.27A1.221,1.221,0,0,1,2.23,16.543L7.59,11.184,6.266,9.859ZM18.121,6.906a4.382,4.382,0,0,1-2.1,3.586c.043.039.082.078.121.117l1.234,1.234a6.257,6.257,0,0,0,2.012-7.8.57.57,0,0,0-.926-.129L15.809,6.57a.627.627,0,0,1-.441.184l-.992,0a.627.627,0,0,1-.625-.625V5.133a.627.627,0,0,1,.184-.441l2.652-2.652a.57.57,0,0,0-.129-.926A6.259,6.259,0,0,0,8.445,3.445a2.22,2.22,0,0,1,.3,1.117V6.156l.625.625V6.75a4.372,4.372,0,0,1,4.219-4.371l-.988.988a2.5,2.5,0,0,0-.73,1.77v.992a2.5,2.5,0,0,0,2.5,2.5h.992a2.5,2.5,0,0,0,1.77-.73Z" transform="translate(0.001 -0.5)" fill="#fff"/></svg>