<svg xmlns="http://www.w3.org/2000/svg" width="20.616" height="20.002" viewBox="0 0 20.616 20.002"><path d="M11.246.5a.934.934,0,0,1,.844.527l2.68,5.52,5.984.883a.931.931,0,0,1,.754.637.941.941,0,0,1-.23.957l-4.34,4.3,1.023,6.078a.939.939,0,0,1-1.367.984l-5.352-2.859L5.9,20.387a.932.932,0,0,1-.988-.066.947.947,0,0,1-.379-.918l1.023-6.078-4.34-4.3A.938.938,0,0,1,1.738,7.43l5.984-.883,2.68-5.52A.939.939,0,0,1,11.246.5Zm0,3.086L9.2,7.813a.946.946,0,0,1-.707.52l-4.621.68,3.355,3.324a.94.94,0,0,1,.266.82L6.7,17.832l4.109-2.2a.931.931,0,0,1,.883,0l4.109,2.2-.789-4.672a.929.929,0,0,1,.266-.82l3.355-3.324-4.621-.684a.944.944,0,0,1-.707-.52Z" transform="translate(-0.938 -0.5)" fill="#fff"/></svg>