<svg xmlns="http://www.w3.org/2000/svg" width="20" height="20" viewBox="0 0 20 20">
  <path id="Path_20591" data-name="Path 20591" d="M12.5.5a1.25,1.25,0,0,0,0,2.5h3.23L7.867,10.867a1.251,1.251,0,0,0,1.77,1.77L17.5,4.77V8A1.25,1.25,0,0,0,20,8V1.75A1.249,1.249,0,0,0,18.75.5ZM3.125,1.75A3.124,3.124,0,0,0,0,4.875v12.5A3.124,3.124,0,0,0,3.125,20.5h12.5a3.124,3.124,0,0,0,3.125-3.125V13a1.25,1.25,0,0,0-2.5,0v4.375a.627.627,0,0,1-.625.625H3.125a.627.627,0,0,1-.625-.625V4.875a.627.627,0,0,1,.625-.625H7.5a1.25,1.25,0,0,0,0-2.5Z" transform="translate(0 -0.5)" fill="#501141"/>
</svg>
